<svg xmlns="http://www.w3.org/2000/svg"  viewBox="0 0 50 50" width="500px" height="500px"><path d="M 15.962891 2 A 1.0001 1.0001 0 0 0 15 3 L 15 14.048828 C 14.684017 14.021395 14.365921 14 14.042969 14 C 7.9795617 14 3.0429688 18.936593 3.0429688 25 C 3.0429688 31.063407 7.9795617 36 14.042969 36 C 14.365921 36 14.684017 35.978605 15 35.951172 L 15 46 A 1.0001 1.0001 0 0 0 15.552734 46.894531 L 17.552734 47.894531 A 1.0001 1.0001 0 0 0 18.447266 47.894531 L 20 47.117188 L 21.552734 47.894531 A 1.0001 1.0001 0 0 0 22.447266 47.894531 L 24 47.117188 L 25.552734 47.894531 A 1.0001 1.0001 0 0 0 26.447266 47.894531 L 28 47.117188 L 29.552734 47.894531 A 1.0001 1.0001 0 0 0 30.447266 47.894531 L 32 47.117188 L 33.552734 47.894531 A 1.0001 1.0001 0 0 0 34.447266 47.894531 L 36 47.117188 L 37.552734 47.894531 A 1.0001 1.0001 0 0 0 38.447266 47.894531 L 40 47.117188 L 41.552734 47.894531 A 1.0001 1.0001 0 0 0 42.447266 47.894531 L 44.447266 46.894531 A 1.0001 1.0001 0 0 0 45 46 L 45 3 A 1.0001 1.0001 0 0 0 43.552734 2.1054688 L 42 2.8828125 L 40.447266 2.1054688 A 1.0001 1.0001 0 0 0 39.552734 2.1054688 L 38 2.8828125 L 36.447266 2.1054688 A 1.0001 1.0001 0 0 0 35.552734 2.1054688 L 34 2.8828125 L 32.447266 2.1054688 A 1.0001 1.0001 0 0 0 31.552734 2.1054688 L 30 2.8828125 L 28.447266 2.1054688 A 1.0001 1.0001 0 0 0 27.552734 2.1054688 L 26 2.8828125 L 24.447266 2.1054688 A 1.0001 1.0001 0 0 0 23.552734 2.1054688 L 22 2.8828125 L 20.447266 2.1054688 A 1.0001 1.0001 0 0 0 19.552734 2.1054688 L 18 2.8828125 L 16.447266 2.1054688 A 1.0001 1.0001 0 0 0 15.962891 2 z M 20 4.1171875 L 21.552734 4.8945312 A 1.0001 1.0001 0 0 0 22.447266 4.8945312 L 24 4.1171875 L 25.552734 4.8945312 A 1.0001 1.0001 0 0 0 26.447266 4.8945312 L 28 4.1171875 L 29.552734 4.8945312 A 1.0001 1.0001 0 0 0 30.447266 4.8945312 L 32 4.1171875 L 33.552734 4.8945312 A 1.0001 1.0001 0 0 0 34.447266 4.8945312 L 36 4.1171875 L 37.552734 4.8945312 A 1.0001 1.0001 0 0 0 38.447266 4.8945312 L 40 4.1171875 L 41.552734 4.8945312 A 1.0001 1.0001 0 0 0 42.447266 4.8945312 L 43 4.6171875 L 43 45.382812 L 42 45.882812 L 40.447266 45.105469 A 1.0001 1.0001 0 0 0 39.552734 45.105469 L 38 45.882812 L 36.447266 45.105469 A 1.0001 1.0001 0 0 0 35.552734 45.105469 L 34 45.882812 L 32.447266 45.105469 A 1.0001 1.0001 0 0 0 31.552734 45.105469 L 30 45.882812 L 28.447266 45.105469 A 1.0001 1.0001 0 0 0 27.552734 45.105469 L 26 45.882812 L 24.447266 45.105469 A 1.0001 1.0001 0 0 0 23.552734 45.105469 L 22 45.882812 L 20.447266 45.105469 A 1.0001 1.0001 0 0 0 19.552734 45.105469 L 18 45.882812 L 17 45.382812 L 17 35.583984 C 19.5965 34.856953 21.80748 33.205038 23.25 31 L 27 31 A 1.0001 1.0001 0 1 0 27 29 L 24.279297 29 C 24.766435 27.758511 25.042969 26.411744 25.042969 25 L 31 25 A 1.0001 1.0001 0 1 0 31 23 L 24.851562 23 C 24.582896 21.546889 24.031038 20.193896 23.25 19 L 27 19 A 1.0001 1.0001 0 1 0 27 17 L 21.568359 17 C 20.292161 15.798774 18.73348 14.901397 17 14.416016 L 17 4.6171875 L 17.552734 4.8945312 A 1.0001 1.0001 0 0 0 18.447266 4.8945312 L 20 4.1171875 z M 21 11 A 1.0001 1.0001 0 1 0 21 13 L 31 13 A 1.0001 1.0001 0 1 0 31 11 L 21 11 z M 37 11 A 1.0001 1.0001 0 1 0 37 13 L 39 13 A 1.0001 1.0001 0 1 0 39 11 L 37 11 z M 14.042969 16 C 18.691709 16 22.496822 19.498393 22.986328 24.013672 A 1.0001 1.0001 0 0 0 22.986328 24.015625 A 1.0001 1.0001 0 0 0 23 24.160156 C 23.025486 24.437041 23.042969 24.716294 23.042969 25 C 23.042969 29.982593 19.025562 34 14.042969 34 C 9.0603752 34 5.0429687 29.982593 5.0429688 25 C 5.0429688 20.017407 9.0603752 16 14.042969 16 z M 37 17 A 1.0001 1.0001 0 1 0 37 19 L 39 19 A 1.0001 1.0001 0 1 0 39 17 L 37 17 z M 13.042969 18 L 13.042969 19.769531 C 10.394969 20.213531 10.310547 22.566703 10.310547 22.845703 C 10.310547 25.321703 12.314781 25.768906 13.925781 26.128906 C 15.371781 26.452906 16.1875 26.68425 16.1875 27.65625 C 16.1875 28.23925 15.908969 29.21875 14.042969 29.21875 C 14.001969 29.21875 13.033781 29.211516 12.425781 28.603516 C 12.066781 28.244516 11.893156 27.7255 11.910156 27.0625 L 11.910156 27 L 10.054688 27 L 10.056641 27.064453 C 10.116641 29.164453 11.096969 30.364375 13.042969 30.734375 L 13.042969 32 L 15 32 L 15 30.765625 C 17.846 30.303625 18.042969 28.097578 18.042969 27.642578 C 18.043969 25.251578 16.037734 24.791875 14.427734 24.421875 C 12.981734 24.089875 12.164062 23.856406 12.164062 22.941406 C 12.164062 21.846406 12.771266 21.335937 14.072266 21.335938 C 15.488266 21.335938 15.859156 22.207 15.910156 23 L 17.765625 23 C 17.766625 22.224 17.451484 21.38925 16.896484 20.78125 C 16.410484 20.25025 15.733 19.908484 15 19.771484 L 15 18 L 13.042969 18 z M 37 23 A 1.0001 1.0001 0 1 0 37 25 L 39 25 A 1.0001 1.0001 0 1 0 39 23 L 37 23 z M 37 29 A 1.0001 1.0001 0 1 0 37 31 L 39 31 A 1.0001 1.0001 0 1 0 39 29 L 37 29 z M 21 39 A 1 1 0 0 0 21 41 A 1 1 0 0 0 21 39 z M 24 39 A 1 1 0 0 0 24 41 A 1 1 0 0 0 24 39 z M 27 39 A 1 1 0 0 0 27 41 A 1 1 0 0 0 27 39 z M 30 39 A 1 1 0 0 0 30 41 A 1 1 0 0 0 30 39 z M 33 39 A 1 1 0 0 0 33 41 A 1 1 0 0 0 33 39 z M 36 39 A 1 1 0 0 0 36 41 A 1 1 0 0 0 36 39 z M 39 39 A 1 1 0 0 0 39 41 A 1 1 0 0 0 39 39 z"/></svg>