<svg xmlns="http://www.w3.org/2000/svg"  viewBox="0 0 50 50" width="500px" height="500px"><path d="M 19.962891 3 A 1.0001 1.0001 0 0 0 19 4 L 19 13 L 6 13 C 4.3550302 13 3 14.35503 3 16 L 3 46 A 1.0001 1.0001 0 0 0 4.4472656 46.894531 L 6 46.117188 L 7.5527344 46.894531 A 1.0001 1.0001 0 0 0 8.4472656 46.894531 L 10 46.117188 L 11.552734 46.894531 A 1.0001 1.0001 0 0 0 12.447266 46.894531 L 14 46.117188 L 15.552734 46.894531 A 1.0001 1.0001 0 0 0 16.447266 46.894531 L 18 46.117188 L 19.552734 46.894531 A 1.0001 1.0001 0 0 0 20.447266 46.894531 L 22 46.117188 L 23.552734 46.894531 A 1.0001 1.0001 0 0 0 25 46 L 25 41 L 39.449219 41 L 47 41 L 47 34.259766 L 47 24.740234 L 47 18 L 39.449219 18 L 29 18 L 29 16 C 29 14.639463 27.983691 13.665922 26.732422 13.304688 A 1.0001 1.0001 0 0 0 26 13 L 21 13 L 21 5.6171875 L 21.552734 5.8945312 A 1.0001 1.0001 0 0 0 22.447266 5.8945312 L 24 5.1171875 L 25.552734 5.8945312 A 1.0001 1.0001 0 0 0 26.447266 5.8945312 L 28 5.1171875 L 29.552734 5.8945312 A 1.0001 1.0001 0 0 0 30.447266 5.8945312 L 32 5.1171875 L 33.552734 5.8945312 A 1.0001 1.0001 0 0 0 34.447266 5.8945312 L 36 5.1171875 L 37.552734 5.8945312 A 1.0001 1.0001 0 0 0 38.447266 5.8945312 L 39 5.6171875 L 39 16 L 41 16 L 41 4 A 1.0001 1.0001 0 0 0 39.552734 3.1054688 L 38 3.8828125 L 36.447266 3.1054688 A 1.0001 1.0001 0 0 0 35.552734 3.1054688 L 34 3.8828125 L 32.447266 3.1054688 A 1.0001 1.0001 0 0 0 31.552734 3.1054688 L 30 3.8828125 L 28.447266 3.1054688 A 1.0001 1.0001 0 0 0 27.552734 3.1054688 L 26 3.8828125 L 24.447266 3.1054688 A 1.0001 1.0001 0 0 0 23.552734 3.1054688 L 22 3.8828125 L 20.447266 3.1054688 A 1.0001 1.0001 0 0 0 19.962891 3 z M 24 9 A 1.0001 1.0001 0 1 0 24 11 L 29 11 A 1.0001 1.0001 0 1 0 29 9 L 24 9 z M 34 9 A 1.0001 1.0001 0 1 0 34 11 L 36 11 A 1.0001 1.0001 0 1 0 36 9 L 34 9 z M 34 13 A 1.0001 1.0001 0 1 0 34 15 L 36 15 A 1.0001 1.0001 0 1 0 36 13 L 34 13 z M 6 15 L 23.416016 15 C 23.278986 15.342014 23 15.611652 23 16 L 23 23.65625 A 1.0001 1.0001 0 0 0 23 24.121094 L 23 34.878906 A 1.0001 1.0001 0 0 0 23 35.345703 L 23 44.382812 L 22.447266 44.105469 A 1.0001 1.0001 0 0 0 21.552734 44.105469 L 20 44.882812 L 18.447266 44.105469 A 1.0001 1.0001 0 0 0 17.552734 44.105469 L 16 44.882812 L 14.447266 44.105469 A 1.0001 1.0001 0 0 0 13.552734 44.105469 L 12 44.882812 L 10.447266 44.105469 A 1.0001 1.0001 0 0 0 9.5527344 44.105469 L 8 44.882812 L 6.4472656 44.105469 A 1.0001 1.0001 0 0 0 5.5527344 44.105469 L 5 44.382812 L 5 16 C 5 15.43497 5.4349698 15 6 15 z M 26 15 C 26.56503 15 27 15.43497 27 16 L 27 18 L 25 18 L 25 16 C 25 15.43497 25.43497 15 26 15 z M 25 20 L 39.449219 20 C 40.332834 20 40.557563 20.307723 40.888672 20.876953 C 41.054226 21.161568 41.198671 21.507784 41.351562 21.861328 C 41.504455 22.214872 41.63102 22.584145 42.013672 22.966797 C 42.394191 23.347316 42.772509 23.480519 43.144531 23.630859 C 43.516554 23.7812 43.889439 23.913096 44.203125 24.054688 C 44.516811 24.196278 44.758768 24.351866 44.873047 24.466797 C 44.987326 24.581728 45 24.599201 45 24.740234 L 45 34.259766 C 45 34.400799 44.98733 34.418272 44.873047 34.533203 C 44.758768 34.648134 44.516811 34.803722 44.203125 34.945312 C 43.889439 35.086903 43.516554 35.2188 43.144531 35.369141 C 42.772509 35.519481 42.394191 35.652684 42.013672 36.033203 C 41.63102 36.415855 41.504455 36.785128 41.351562 37.138672 C 41.198672 37.492216 41.054226 37.838432 40.888672 38.123047 C 40.557563 38.692277 40.332834 39 39.449219 39 L 25 39 L 25 36.677734 C 25.635126 36.880854 26.305048 37 27 37 C 30.899395 37 34 33.588793 34 29.5 C 34 25.411207 30.899395 22 27 22 C 26.305048 22 25.635126 22.119146 25 22.322266 L 25 20 z M 42.683594 20 L 45 20 L 45 22.222656 C 44.588603 22.038747 44.192288 21.898462 43.892578 21.777344 C 43.586038 21.653466 43.386215 21.511215 43.427734 21.552734 C 43.470384 21.595384 43.324562 21.387863 43.185547 21.066406 C 43.060248 20.776667 42.901501 20.397328 42.683594 20 z M 8 22 A 1.0001 1.0001 0 1 0 8 24 L 13 24 A 1.0001 1.0001 0 1 0 13 22 L 8 22 z M 18 22 A 1.0001 1.0001 0 1 0 18 24 L 20 24 A 1.0001 1.0001 0 1 0 20 22 L 18 22 z M 27 24 C 29.728605 24 32 26.408793 32 29.5 C 32 32.591207 29.728605 35 27 35 C 26.28569 35 25.614618 34.832025 25 34.535156 L 25 24.464844 C 25.614618 24.167975 26.28569 24 27 24 z M 8 26 A 1.0001 1.0001 0 1 0 8 28 L 10 28 A 1.0001 1.0001 0 1 0 10 26 L 8 26 z M 18 26 A 1.0001 1.0001 0 1 0 18 28 L 20 28 A 1.0001 1.0001 0 1 0 20 26 L 18 26 z M 39.5 27 C 38.75 27 38.060226 27.317256 37.626953 27.804688 C 37.193681 28.292119 37 28.902778 37 29.5 C 37 30.097222 37.193681 30.707882 37.626953 31.195312 C 38.060226 31.682744 38.75 32 39.5 32 C 40.25 32 40.939774 31.682744 41.373047 31.195312 C 41.806319 30.707881 42 30.097222 42 29.5 C 42 28.902778 41.806319 28.292118 41.373047 27.804688 C 40.939774 27.317256 40.25 27 39.5 27 z M 39.5 29 C 39.75 29 39.810226 29.05774 39.876953 29.132812 C 39.94368 29.207881 40 29.347222 40 29.5 C 40 29.652778 39.94368 29.792118 39.876953 29.867188 C 39.810226 29.942256 39.75 30 39.5 30 C 39.25 30 39.189774 29.942256 39.123047 29.867188 C 39.05632 29.792119 39 29.652778 39 29.5 C 39 29.347222 39.05632 29.207882 39.123047 29.132812 C 39.189774 29.057744 39.25 29 39.5 29 z M 8 30 A 1.0001 1.0001 0 1 0 8 32 L 13 32 A 1.0001 1.0001 0 1 0 13 30 L 8 30 z M 18 30 A 1.0001 1.0001 0 1 0 18 32 L 20 32 A 1.0001 1.0001 0 1 0 20 30 L 18 30 z M 8 34 A 1.0001 1.0001 0 1 0 8 36 L 11 36 A 1.0001 1.0001 0 1 0 11 34 L 8 34 z M 18 34 A 1.0001 1.0001 0 1 0 18 36 L 20 36 A 1.0001 1.0001 0 1 0 20 34 L 18 34 z M 45 36.777344 L 45 39 L 42.683594 39 C 42.901501 38.602672 43.060248 38.223333 43.185547 37.933594 C 43.324562 37.612137 43.470386 37.404614 43.427734 37.447266 C 43.386214 37.488786 43.586038 37.346534 43.892578 37.222656 C 44.192288 37.101538 44.588603 36.961253 45 36.777344 z"/></svg>