<svg xmlns="http://www.w3.org/2000/svg"  viewBox="0 0 50 50" width="500px" height="500px"><path d="M 8 9 C 5.2504839 9 3 11.250484 3 14 L 3 36 C 3 38.749516 5.2504839 41 8 41 L 44 41 C 46.749516 41 49 38.749516 49 36 L 49 14 C 49 11.250484 46.749516 9 44 9 L 8 9 z M 8 11 L 44 11 C 45.668484 11 47 12.331516 47 14 L 47 36 C 47 37.668484 45.668484 39 44 39 L 8 39 C 6.3315161 39 5 37.668484 5 36 L 5 14 C 5 12.331516 6.3315161 11 8 11 z M 17.003906 14 A 1.0001 1.0001 0 0 0 16.605469 14.080078 L 9.6054688 17.080078 A 1.0009552 1.0009552 0 1 0 10.394531 18.919922 L 17 16.087891 L 23.605469 18.919922 A 1.0009551 1.0009551 0 1 0 24.394531 17.080078 L 17.394531 14.080078 A 1.0001 1.0001 0 0 0 17.003906 14 z M 29 18 A 1.0001 1.0001 0 1 0 29 20 L 42 20 A 1.0001 1.0001 0 1 0 42 18 L 29 18 z M 12 20 C 11.447 20 11 20.447 11 21 L 11 35 C 11 35.553 11.447 36 12 36 L 22 36 C 22.553 36 23 35.553 23 35 L 23 21 C 23 20.447 22.553 20 22 20 L 12 20 z M 13 22 L 16 22 L 16 24 L 13 24 L 13 22 z M 18 22 L 21 22 L 21 24 L 18 24 L 18 22 z M 29 22 A 1.0001 1.0001 0 1 0 29 24 L 39 24 A 1.0001 1.0001 0 1 0 39 22 L 29 22 z M 13 26 L 16 26 L 16 28 L 13 28 L 13 26 z M 18 26 L 21 26 L 21 28 L 18 28 L 18 26 z M 29 26 A 1.0001 1.0001 0 1 0 29 28 L 42 28 A 1.0001 1.0001 0 1 0 42 26 L 29 26 z M 13 30 L 16 30 L 16 32 L 13 32 L 13 30 z M 18 30 L 21 30 L 21 34 L 18 34 L 18 30 z M 29 30 A 1.0001 1.0001 0 1 0 29 32 L 39 32 A 1.0001 1.0001 0 1 0 39 30 L 29 30 z"/></svg>