<?xml version="1.0"?><svg xmlns="http://www.w3.org/2000/svg"  viewBox="0 0 50 50" width="500px" height="500px">    <path d="M 39.292969 2.2929688 L 33.585938 8 L 39.292969 13.707031 L 40.707031 12.292969 L 37.414062 9 L 41 9 C 43.754545 9 46 11.245455 46 14 L 46 19 L 48 19 L 48 14 C 48 10.154545 44.845455 7 41 7 L 37.414062 7 L 40.707031 3.7070312 L 39.292969 2.2929688 z M 6 6.9960938 C 3.8005048 6.9960938 1.9960936 8.8005048 1.9960938 11 L 1.9960938 25 C 1.9960938 27.199495 3.8005048 29.003906 6 29.003906 L 18.996094 29.003906 L 18.996094 39 C 18.996094 41.199495 20.800505 43.003906 23 43.003906 L 44 43.003906 C 46.199495 43.003906 48.003906 41.199495 48.003906 39 L 48.003906 25 C 48.003906 22.800505 46.199495 20.996094 44 20.996094 L 31.003906 20.996094 L 31.003906 11 C 31.003906 8.8005048 29.199495 6.9960937 27 6.9960938 L 6 6.9960938 z M 6 9.0039062 L 27 9.0039062 C 28.114505 9.0039062 28.996094 9.8854952 28.996094 11 L 28.996094 13 L 4.0039062 13 L 4.0039062 11 C 4.0039062 9.8854952 4.8854952 9.0039062 6 9.0039062 z M 4.0039062 17 L 28.996094 17 L 28.996094 20.996094 L 23 20.996094 C 21.075442 20.996094 19.453572 22.3784 19.078125 24.197266 C 19.02449 24.457104 18.996094 24.725063 18.996094 25 L 18.996094 26.996094 L 6 26.996094 C 4.8854952 26.996094 4.0039062 26.114505 4.0039062 25 L 4.0039062 17 z M 23 23.003906 L 44 23.003906 C 45.114505 23.003906 45.996094 23.885495 45.996094 25 L 45.996094 27 L 21.003906 27 L 21.003906 25 C 21.003906 24.860687 21.018639 24.724518 21.044922 24.59375 C 21.228901 23.678377 22.024808 23.003906 23 23.003906 z M 2 31 L 2 36 C 2 39.845455 5.1545455 43 9 43 L 12.585938 43 L 9.2929688 46.292969 L 10.707031 47.707031 L 16.414062 42 L 10.707031 36.292969 L 9.2929688 37.707031 L 12.585938 41 L 9 41 C 6.2454545 41 4 38.754545 4 36 L 4 31 L 2 31 z M 21.003906 31 L 45.996094 31 L 45.996094 39 C 45.996094 40.114505 45.114505 40.996094 44 40.996094 L 23 40.996094 C 21.885495 40.996094 21.003906 40.114505 21.003906 39 L 21.003906 31 z"/></svg>