<svg xmlns="http://www.w3.org/2000/svg"  viewBox="0 0 50 50" width="500px" height="500px"><path d="M 24.875 0 C 24.558594 0.0390625 24.28125 0.222656 24.125 0.5 L 14.125 18.5 C 14.039063 18.652344 13.996094 18.824219 14 19 L 14 30.46875 L 3.3125 38.09375 C 2.992188 38.289063 2.804688 38.644531 2.832031 39.019531 C 2.855469 39.394531 3.089844 39.722656 3.4375 39.871094 C 3.78125 40.019531 4.179688 39.960938 4.46875 39.71875 L 7 37.90625 L 7 49 C 7 49.550781 7.449219 50 8 50 L 20 50 C 20.550781 50 21 49.550781 21 49 L 21 42 C 21 39.722656 22.722656 38 25 38 C 27.277344 38 29 39.722656 29 42 L 29 49 C 29 49.550781 29.449219 50 30 50 L 42 50 C 42.550781 50 43 49.550781 43 49 L 43 37.90625 L 45.53125 39.71875 C 45.820313 39.960938 46.21875 40.019531 46.5625 39.871094 C 46.910156 39.722656 47.144531 39.394531 47.167969 39.019531 C 47.195313 38.644531 47.007813 38.289063 46.6875 38.09375 L 36 30.46875 L 36 19 C 36.003906 18.824219 35.960938 18.652344 35.875 18.5 L 25.875 0.5 C 25.675781 0.144531 25.277344 -0.0507813 24.875 0 Z M 25 3.0625 L 34 19.28125 L 34 31 C 33.996094 31.320313 34.148438 31.621094 34.40625 31.8125 L 41 36.5 L 41 48 L 31 48 L 31 42 C 31 38.675781 28.324219 36 25 36 C 21.675781 36 19 38.675781 19 42 L 19 48 L 9 48 L 9 36.5 L 15.59375 31.8125 C 15.851563 31.621094 16.003906 31.320313 16 31 L 16 19.28125 Z M 25 19 C 22.25 19 20 21.25 20 24 C 20 26.75 22.25 29 25 29 C 27.75 29 30 26.75 30 24 C 30 21.25 27.75 19 25 19 Z M 25 21 C 26.667969 21 28 22.332031 28 24 C 28 25.667969 26.667969 27 25 27 C 23.332031 27 22 25.667969 22 24 C 22 22.332031 23.332031 21 25 21 Z"/></svg>