<svg xmlns="http://www.w3.org/2000/svg"  viewBox="0 0 50 50" width="500px" height="500px"><path d="M 25.013672 1.0527344 A 1.0001 1.0001 0 0 0 24.345703 1.296875 L 1.3457031 21.244141 A 1.0001 1.0001 0 1 0 2.6542969 22.755859 L 5 20.720703 L 5 46 A 1.0001 1.0001 0 0 0 6 47 L 44 47 A 1.0001 1.0001 0 0 0 45 46 L 45 20.722656 L 47.345703 22.755859 A 1.0001 1.0001 0 1 0 48.654297 21.244141 L 40 13.738281 C 39.999998 13.732281 40.000002 13.730779 40 13.724609 C 39.999932 13.522597 40.000023 13.220849 40 12.851562 C 39.999953 12.112993 39.999938 11.104949 40 10.089844 C 40.000125 8.0596319 40 6 40 6 A 1.0001 1.0001 0 0 0 39 5 L 35 5 A 1.0001 1.0001 0 0 0 34 6.0019531 C 34 6.0019531 34.001253 7.1256205 34.001953 8.25 C 34.002011 8.3544777 34.001907 8.4335329 34.001953 8.5371094 L 25.654297 1.296875 A 1.0001 1.0001 0 0 0 25.013672 1.0527344 z M 25 3.3769531 L 33.582031 10.818359 A 1.0001 1.0001 0 0 0 35.087891 12.126953 L 43.013672 19 L 6.984375 19 L 25 3.3769531 z M 36 7 L 38 7 C 37.999925 7.6668226 38.000094 8.5559755 38 10.089844 C 37.999957 10.79341 37.999998 11.394589 38 12.003906 L 36.001953 10.271484 C 36.002256 10.149005 36.001844 9.9929023 36.001953 9.796875 C 36.002188 9.3741658 36.002266 8.8106071 36.001953 8.2480469 C 36.001606 7.6239562 36.000411 7.4319521 36 7 z M 7 21 L 43 21 L 43 45 L 7 45 L 7 21 z M 13 26 A 1.0001 1.0001 0 0 0 12 27 L 12 39 A 1.0001 1.0001 0 0 0 13 40 L 21 40 A 1.0001 1.0001 0 0 0 22 39 L 22 27 A 1.0001 1.0001 0 0 0 21 26 L 13 26 z M 29 26 A 1.0001 1.0001 0 0 0 28 27 L 28 39 A 1.0001 1.0001 0 0 0 29 40 L 37 40 A 1.0001 1.0001 0 0 0 38 39 L 38 27 A 1.0001 1.0001 0 0 0 37 26 L 29 26 z M 14 28 L 20 28 L 20 38 L 14 38 L 14 28 z M 30 28 L 36 28 L 36 38 L 30 38 L 30 28 z"/></svg>