<svg xmlns="http://www.w3.org/2000/svg"  viewBox="0 0 24 24" width="500px" height="500px"><path d="M 12 2 C 10.35499 2 9 3.3549904 9 5 C 9 5.351851 9.0739423 5.6851061 9.1875 6 L 5.8359375 6 C 4.8753535 6 4.0382534 6.6977376 3.8671875 7.6425781 L 2 17.910156 L 2 19 C 2 20.093063 2.9069372 21 4 21 L 20 21 C 21.093063 21 22 20.093063 22 19 L 22 17.910156 L 21.984375 17.820312 L 20.132812 7.640625 C 19.960031 6.6972802 19.126586 6 18.166016 6 L 14.8125 6 C 14.926058 5.6851061 15 5.351851 15 5 C 15 3.3549904 13.64501 2 12 2 z M 12 4 C 12.564129 4 13 4.4358706 13 5 C 13 5.5641294 12.564129 6 12 6 C 11.435871 6 11 5.5641294 11 5 C 11 4.4358706 11.435871 4 12 4 z M 5.8339844 8 L 5.8359375 8 L 11.744141 8 L 11.744141 8.9746094 C 11.435141 9.0136094 9.703125 9.3387344 9.703125 11.427734 C 9.703125 14.475734 12.859375 13.573422 12.859375 15.607422 C 12.859375 16.625422 12.200406 16.650391 12.066406 16.650391 C 11.944406 16.650391 11.140625 16.558 11.140625 15 L 9.4179688 15 C 9.4179688 17.639 11.330234 18.005922 11.615234 18.044922 L 11.615234 19 L 4 19 L 4 18.089844 L 5.8339844 8 z M 12.664062 8 L 18.166016 8 L 18.166016 8.0019531 L 20 18.09375 L 20 19 L 12.529297 19 L 12.529297 18.044922 C 12.838297 18.005922 14.582031 17.719703 14.582031 15.595703 C 14.582031 12.670703 11.426734 13.230547 11.427734 11.435547 C 11.427734 10.407547 11.926234 10.375 12.115234 10.375 C 12.357234 10.375 12.871094 10.747 12.871094 12 L 14.595703 12 C 14.595703 9.602 12.956062 9.0540469 12.664062 8.9980469 L 12.664062 8 z"/></svg>