<svg xmlns="http://www.w3.org/2000/svg"  viewBox="0 0 50 50" width="500px" height="500px"><path d="M 26 3 C 22.145851 3 19 6.1458514 19 10 C 19 13.513828 21.617539 16.430748 25 16.919922 L 25 24.080078 C 21.945034 24.521851 19.521851 26.945034 19.080078 30 L 15 30 L 15 28 C 15 26.904545 14.095455 26 13 26 L 10 26 C 8.9045455 26 8 26.904545 8 28 L 8 30 L 6 30 C 3.8045455 30 2 31.804545 2 34 L 2 43 C 2 45.195455 3.8045455 47 6 47 L 44 47 C 46.195455 47 48 45.195455 48 43 L 48 34 C 48 31.804545 46.195455 30 44 30 L 32.919922 30 C 32.478149 26.945034 30.054966 24.521851 27 24.080078 L 27 16.919922 C 30.382461 16.430748 33 13.513828 33 10 C 33 6.1458514 29.854149 3 26 3 z M 26 5 C 28.773268 5 31 7.2267316 31 10 C 31 12.773268 28.773268 15 26 15 C 23.226732 15 21 12.773268 21 10 C 21 7.2267316 23.226732 5 26 5 z M 26 26 C 28.418215 26 30.325376 27.728131 30.798828 30 L 21.201172 30 C 21.674624 27.728131 23.581785 26 26 26 z M 10 28 L 13 28 L 13 30 L 10 30 L 10 28 z M 6 32 L 44 32 C 45.104545 32 46 32.895455 46 34 L 46 43 C 46 44.104545 45.104545 45 44 45 L 6 45 C 4.8954545 45 4 44.104545 4 43 L 4 34 C 4 32.895455 4.8954545 32 6 32 z"/></svg>