<svg xmlns="http://www.w3.org/2000/svg"  viewBox="0 0 30 30" width="500px" height="500px"><path d="M 6.0117188 5.9921875 L 6.0117188 6.0039062 L 2.0019531 6.0039062 C 1.8719531 6.0039062 1.7413281 6.0129687 1.6113281 6.0429688 L 1.5820312 6.0429688 C 0.66203125 6.2429688 0.001953125 7.0539063 0.001953125 8.0039062 L 0.001953125 20.003906 C 0.001953125 20.133906 0.01296875 20.262812 0.04296875 20.382812 C 0.04296875 20.392813 0.042734375 20.402109 0.052734375 20.412109 C 0.24273438 21.342109 1.0619531 22.003906 2.0019531 22.003906 L 11.212891 22.003906 L 12.8125 18.003906 L 13.832031 15.433594 L 10.751953 10.8125 L 10.212891 9.9921875 L 10.371094 9.7421875 L 12.882812 5.9921875 L 6.0117188 5.9921875 z M 16.482422 5.9921875 L 15.222656 7.8730469 L 13.832031 9.9628906 L 16.902344 15.09375 L 15.0625 19.992188 L 14.3125 21.992188 L 15.216797 21.992188 L 15.212891 22.003906 L 16.451172 22.003906 L 16.455078 21.992188 L 28.001953 22.003906 C 28.131953 22.003906 28.262813 21.982891 28.382812 21.962891 C 28.402812 21.962891 28.411875 21.953125 28.421875 21.953125 C 29.341875 21.753125 30.001953 20.943906 30.001953 20.003906 L 30.001953 8.0039062 C 30.001953 7.8739062 29.982891 7.7432812 29.962891 7.6132812 C 29.962891 7.6032813 29.951172 7.5920312 29.951172 7.5820312 C 29.751172 6.6620313 28.941953 6.0039063 28.001953 6.0039062 L 18.871094 5.9921875 L 16.482422 5.9921875 z M 4.0117188 7.9921875 L 9.0117188 7.9921875 L 7.7519531 9.8925781 L 9.4511719 12.453125 C 9.4311719 12.473125 9.421875 12.503438 9.421875 12.523438 C 9.371875 12.633437 9.32125 12.743281 9.28125 12.863281 C 9.26125 12.913281 9.2421875 12.953906 9.2421875 13.003906 C 9.1921875 13.143906 9.1510938 13.283594 9.1210938 13.433594 C 9.0810938 13.583594 9.0629688 13.732578 9.0429688 13.892578 C 9.0129688 14.092578 9.0019531 14.293906 9.0019531 14.503906 C 9.0019531 15.923906 9.6017187 17.173906 10.511719 18.003906 L 11.0625 18.003906 L 10.201172 20.003906 L 4.0019531 20.003906 C 4.0019531 18.893906 3.1019531 18.003906 2.0019531 18.003906 L 2.0019531 10.003906 C 3.1019531 10.003906 4.0019531 9.1039062 4.0019531 8.0039062 L 4.0214844 8.0039062 L 4.0117188 7.9921875 z M 17.541016 8.0039062 L 26.001953 8.0039062 C 26.001953 9.1039062 26.891953 10.003906 28.001953 10.003906 L 28.001953 18.003906 C 26.891953 18.003906 26.001953 18.893906 26.001953 20.003906 L 17.201172 19.992188 L 17.951172 18 L 19.486328 18 C 20.402328 17.175 21 15.922 21 14.5 C 21 12.015 19.209 10 17 10 C 16.737 10 16.484328 10.040656 16.236328 10.097656 L 16.191406 10.023438 L 17.541016 8.0039062 z M 25 13 A 1 1 0 0 0 25 15 A 1 1 0 0 0 25 13 z M 5.0019531 13.003906 A 1 1 0 0 0 5.0019531 15.003906 A 1 1 0 0 0 5.0019531 13.003906 z"/></svg>