<svg xmlns="http://www.w3.org/2000/svg"  viewBox="0 0 50 50" width="500px" height="500px"><path d="M 9.3125 0 C 6.382813 0 4 2.382813 4 5.3125 L 4 44 L 3 44 C 2.96875 44 2.9375 44 2.90625 44 C 2.390625 44.046875 1.996094 44.480469 2 45 L 2 49 C 2 49.550781 2.449219 50 3 50 L 36 50 C 36.550781 50 37 49.550781 37 49 L 37 45 C 37 44.449219 36.550781 44 36 44 L 35 44 L 35 27.15625 C 36.753906 27.585938 38 29.078125 38 31 L 38 36 C 38 39.324219 40.675781 42 44 42 C 47.324219 42 50 39.324219 50 36 L 50 19.40625 C 50 18.210938 49.515625 17.078125 48.71875 16.28125 L 37.71875 5.28125 L 36.28125 6.71875 L 42 12.4375 L 42 20.59375 C 42 21.789063 42.484375 22.921875 43.28125 23.71875 L 48 28.4375 L 48 36 C 48 38.277344 46.277344 40 44 40 C 41.722656 40 40 38.277344 40 36 L 40 31 C 40 28.015625 37.847656 25.566406 35 25.09375 L 35 5.3125 C 35 2.382813 32.617188 0 29.6875 0 Z M 9.3125 2 L 29.6875 2 C 31.558594 2 33 3.441406 33 5.3125 L 33 44 L 6 44 L 6 5.3125 C 6 3.441406 7.441406 2 9.3125 2 Z M 10.90625 4 C 9.304688 4 8 5.304688 8 6.90625 L 8 17.09375 C 8 18.695313 9.304688 20 10.90625 20 L 28.09375 20 C 29.695313 20 31 18.695313 31 17.09375 L 31 6.90625 C 31 5.304688 29.695313 4 28.09375 4 Z M 10.90625 6 L 28.09375 6 C 28.492188 6 29 6.507813 29 6.90625 L 29 17.09375 C 29 17.492188 28.492188 18 28.09375 18 L 10.90625 18 C 10.507813 18 10 17.492188 10 17.09375 L 10 6.90625 C 10 6.507813 10.507813 6 10.90625 6 Z M 44 14.4375 L 47.28125 17.71875 C 47.683594 18.121094 48 18.800781 48 19.40625 L 48 25.5625 L 44.71875 22.28125 C 44.316406 21.878906 44 21.199219 44 20.59375 Z M 4 46 L 35 46 L 35 48 L 4 48 Z"/></svg>