<svg xmlns="http://www.w3.org/2000/svg"  viewBox="0 0 50 50" width="500px" height="500px"><path d="M 34.339844 0 A 1.0001 1.0001 0 0 0 33.791016 0.1640625 C 33.566485 0.31145052 32.496663 0.79252378 31.201172 1.2871094 C 29.905681 1.7816949 28.31522 2.3507004 26.742188 2.9121094 C 25.169155 3.4735184 23.614073 4.0287039 22.373047 4.5058594 C 21.752534 4.7444371 21.211385 4.9614712 20.773438 5.1582031 C 20.33549 5.3549351 20.045167 5.4659135 19.699219 5.7675781 C 19.256354 6.153753 18.840497 6.7085123 18.273438 7.4882812 C 17.706377 8.2680503 17.06028 9.2261872 16.443359 10.214844 C 15.826438 11.2035 15.241054 12.218829 14.796875 13.126953 C 14.352696 14.035077 14.003906 14.737831 14.003906 15.585938 C 14.003906 15.958177 14.060036 16.044609 14.126953 16.310547 C 14.193873 16.576485 14.286834 16.906424 14.404297 17.294922 C 14.639222 18.071919 14.972415 19.076283 15.373047 20.179688 C 16.059151 22.069326 16.941173 24.210666 17.896484 26 L 17.003906 26 A 1.0001 1.0001 0 0 0 16.003906 27 L 16.003906 35 A 1.0001 1.0001 0 0 0 17.003906 36 L 32.003906 36 A 1.0001 1.0001 0 0 0 33.003906 35 L 33.003906 27 A 1.0001 1.0001 0 0 0 32.003906 26 L 31.623047 26 C 32.282688 25.711132 33.216774 25.352074 34.302734 24.875 C 35.988277 24.134523 37.994192 23.024759 39.794922 21.035156 C 41.659895 18.970934 42.503435 16.05094 43.386719 13.410156 C 44.270003 10.769372 45.210194 8.4673068 46.580078 7.5039062 A 1.0001 1.0001 0 0 0 46.896484 6.234375 C 45.740548 3.9496226 43.254391 2.4877273 40.783203 1.4941406 C 38.312015 0.50055394 35.865378 1.4802974e-16 34.339844 0 z M 34.476562 2.0195312 C 35.554646 2.0443673 37.858591 2.473696 40.037109 3.3496094 C 42.011102 4.1432895 43.704681 5.3340451 44.636719 6.6289062 C 43.07897 8.1976948 42.257558 10.481296 41.490234 12.775391 C 40.595768 15.449607 39.721574 18.133535 38.310547 19.695312 C 36.755818 21.412299 35.047582 22.364194 33.498047 23.044922 C 31.948765 23.725538 30.593822 24.029725 29.560547 24.857422 C 29.560547 24.857422 29.558594 24.859375 29.558594 24.859375 C 28.685348 25.526531 27.68097 26.55221 26.542969 27.417969 C 25.397773 28.289201 24.177072 28.923828 23.152344 28.923828 C 22.031486 28.923828 20.657856 27.81264 20.554688 26.703125 C 20.554688 26.703125 20.554688 26.701172 20.554688 26.701172 C 20.482328 25.844386 20.785575 25.044601 21.378906 24.244141 C 21.973606 23.441833 22.854379 22.683879 23.769531 22.054688 C 25.599835 20.796301 27.503906 20.064453 27.503906 20.064453 A 1.0001 1.0001 0 0 0 27.962891 19.708984 C 27.962891 19.708984 28.774726 18.564994 29.712891 17.322266 C 30.181973 16.700901 30.683414 16.055261 31.121094 15.525391 C 31.558773 14.99552 31.979883 14.557249 32.083984 14.474609 A 1.0001 1.0001 0 0 0 31.212891 12.722656 C 31.212891 12.722656 30.181471 12.986389 28.939453 13.042969 C 27.697436 13.099549 26.35776 12.87179 25.757812 12.304688 A 1.0001 1.0001 0 0 0 24.173828 12.585938 C 24.173828 12.585938 22.582707 15.417228 20.621094 15.845703 A 1.0001 1.0001 0 0 0 20.033203 17.419922 C 20.033203 17.419922 20.654706 18.200825 20.796875 20.03125 A 1.0001 1.0001 0 0 0 21.041016 20.611328 C 21.041016 20.611328 21.190913 20.782251 21.361328 21.019531 C 21.465847 21.165059 21.507487 21.26328 21.574219 21.388672 C 20.943161 21.912934 20.269031 22.381496 19.771484 23.052734 C 19.559354 23.338919 19.432207 23.682823 19.263672 24.001953 C 18.549237 22.529723 17.801227 21.010834 17.251953 19.498047 C 16.86346 18.428076 16.542418 17.451394 16.320312 16.716797 C 16.20926 16.349498 16.121555 16.041433 16.066406 15.822266 C 16.039778 15.716445 16.024519 15.608629 16.015625 15.546875 C 16.030209 15.475621 16.21042 14.785584 16.591797 14.005859 C 16.988961 13.193858 17.547218 12.221281 18.138672 11.273438 C 18.730126 10.325594 19.356591 9.3984185 19.890625 8.6640625 C 20.424659 7.9297065 20.937037 7.3422158 21.013672 7.2753906 C 20.927472 7.3505556 21.214279 7.1528852 21.59375 6.9824219 C 21.973221 6.8119585 22.490138 6.6024221 23.091797 6.3710938 C 24.295114 5.9084367 25.841221 5.3562629 27.414062 4.7949219 C 28.986905 4.2335809 30.587413 3.6634769 31.916016 3.15625 C 33.060338 2.7193767 33.832805 2.3813533 34.476562 2.0195312 z M 25.443359 14.289062 C 26.585196 14.863394 27.846601 15.083778 28.962891 15.037109 C 28.677862 15.39949 28.39491 15.749306 28.117188 16.117188 C 27.229743 17.292731 26.577685 18.213329 26.466797 18.369141 C 26.215226 18.467561 24.77184 19.125918 23.136719 20.140625 C 23.080909 20.059225 23.039609 19.927703 22.986328 19.853516 C 22.835703 19.64379 22.776872 19.581787 22.697266 19.486328 C 22.581005 18.605725 22.388942 17.820979 22.169922 17.291016 C 24.053412 16.3997 24.988162 15.106935 25.443359 14.289062 z M 18.003906 28 L 18.880859 28 C 19.549649 29.742821 21.298136 30.923828 23.152344 30.923828 C 24.923615 30.923828 26.462102 29.992534 27.753906 29.009766 C 28.193561 28.675289 28.599324 28.333498 28.984375 28 A 1.0001 1.0001 0 0 0 29.003906 28 L 31.003906 28 L 31.003906 34 L 18.003906 34 L 18.003906 28 z M 11.730469 36.298828 C 10.478126 36.287088 9.2233639 36.52529 8.0429688 37.013672 A 1.0001 1.0001 0 0 0 8.0019531 37.03125 L 3.5820312 39.09375 A 1.0001 1.0001 0 1 0 4.4257812 40.90625 L 8.8125 38.859375 C 10.67027 38.092567 12.762661 38.113916 14.605469 38.916016 A 1.0001 1.0001 0 0 0 14.6875 38.947266 C 16.169127 39.441141 18.410545 40.236896 20.300781 40.921875 C 21.2459 41.264364 22.10547 41.580046 22.738281 41.816406 C 23.054687 41.934586 23.314859 42.032462 23.498047 42.103516 C 23.584667 42.137116 23.650784 42.164634 23.697266 42.183594 C 23.937372 42.325438 24.095703 42.562131 24.095703 42.859375 C 24.095703 43.312075 23.745487 43.662109 23.277344 43.662109 C 23.207414 43.662109 23.147083 43.655808 23.091797 43.642578 A 1.0001 1.0001 0 0 0 23.087891 43.640625 C 23.106741 43.645025 22.50943 43.480305 21.8125 43.277344 C 21.11557 43.074382 20.227805 42.814026 19.355469 42.556641 C 17.610797 42.041871 15.925781 41.541016 15.925781 41.541016 A 1.0001 1.0001 0 1 0 15.355469 43.457031 C 15.355469 43.457031 17.041985 43.959129 18.789062 44.474609 C 19.662602 44.732349 20.55079 44.993071 21.251953 45.197266 C 21.951278 45.400925 22.3714 45.527775 22.626953 45.587891 C 22.839667 45.638691 23.05927 45.662109 23.277344 45.662109 C 24.8172 45.662109 26.095703 44.400675 26.095703 42.859375 C 26.095703 42.793819 26.086585 42.730517 26.082031 42.666016 C 27.201633 42.259066 32.444232 40.346464 34.660156 39.277344 C 34.816774 39.201754 35.205286 39.131151 35.523438 39.183594 C 35.841588 39.236034 36.049766 39.361287 36.160156 39.535156 A 1.0001 1.0001 0 0 0 36.162109 39.537109 C 36.452474 39.993541 36.332987 40.557762 35.888672 40.873047 L 23.205078 47.376953 A 1.0001 1.0001 0 0 0 23.060547 47.466797 C 22.35122 48.000425 21.415431 48.14578 20.574219 47.849609 L 12.115234 44.875 C 10.070493 44.038138 7.7326267 44.318203 5.9472656 45.617188 L 3.4121094 47.460938 A 1.0001 1.0001 0 1 0 4.5878906 49.078125 L 7.1230469 47.234375 C 8.3476858 46.343359 9.9521632 46.149472 11.357422 46.724609 A 1.0001 1.0001 0 0 0 11.404297 46.744141 L 19.910156 49.734375 C 21.334379 50.23581 22.909944 50.009176 24.138672 49.144531 L 36.900391 42.601562 A 1.0001 1.0001 0 0 0 37.009766 42.537109 C 38.33026 41.632519 38.708527 39.817063 37.849609 38.464844 C 37.367005 37.704709 36.576005 37.330995 35.847656 37.210938 C 35.119307 37.090879 34.413398 37.174208 33.791016 37.474609 C 31.8421 38.414906 26.131953 40.516327 25.224609 40.849609 C 25.063005 40.69512 24.887503 40.555379 24.693359 40.443359 A 1.0001 1.0001 0 0 0 24.693359 40.441406 C 24.524628 40.344326 24.53349 40.363276 24.466797 40.335938 C 24.400107 40.308597 24.319197 40.278434 24.220703 40.240234 C 24.023715 40.163824 23.758548 40.063273 23.4375 39.943359 C 22.795405 39.703532 21.932429 39.385276 20.982422 39.041016 C 19.082408 38.352494 16.838685 37.556906 15.320312 37.050781 C 14.173174 36.56415 12.953938 36.3103 11.730469 36.298828 z"/></svg>