<svg xmlns="http://www.w3.org/2000/svg"  viewBox="0 0 50 50" width="500px" height="500px"><path d="M 24.8125 0 C 24.636719 0.0390625 24.472656 0.125 24.34375 0.25 L 17.0625 6.5625 C 16.148438 6.8125 15.367188 7 15 7 C 14.402344 7 13.140625 6.574219 11.59375 6.0625 C 10.046875 5.550781 8.167969 5 6 5 C 3.253906 5 1 7.253906 1 10 C 1 12.03125 1.546875 13.695313 2.0625 15.03125 C 2.578125 16.367188 3 17.402344 3 18 C 3 18.597656 2.601563 19.597656 2.09375 20.78125 C 1.585938 21.964844 1 23.363281 1 25 C 1 26.367188 1.5625 27.667969 2.0625 28.90625 C 2.5625 30.144531 3 31.332031 3 32 C 3 32.667969 2.578125 33.65625 2.0625 34.96875 C 1.546875 36.28125 1 37.925781 1 40 C 1 42.746094 3.253906 45 6 45 C 8.210938 45 10.054688 44.449219 11.5625 43.9375 C 13.070313 43.425781 14.265625 43 15 43 C 15.734375 43 17.289063 43.460938 19.0625 43.96875 C 20.835938 44.476563 22.878906 45 25 45 C 27.121094 45 29.164063 44.476563 30.9375 43.96875 C 32.710938 43.460938 34.265625 43 35 43 C 35.734375 43 36.929688 43.425781 38.4375 43.9375 C 39.945313 44.449219 41.789063 45 44 45 C 46.746094 45 49 42.746094 49 40 C 49 37.925781 48.453125 36.28125 47.9375 34.96875 C 47.421875 33.65625 47 32.667969 47 32 C 47 31.332031 47.4375 30.144531 47.9375 28.90625 C 48.4375 27.667969 49 26.367188 49 25 C 49 23.363281 48.414063 21.964844 47.90625 20.78125 C 47.398438 19.597656 47 18.597656 47 18 C 47 17.402344 47.421875 16.367188 47.9375 15.03125 C 48.453125 13.695313 49 12.03125 49 10 C 49 7.253906 46.746094 5 44 5 C 41.832031 5 39.953125 5.550781 38.40625 6.0625 C 36.859375 6.574219 35.597656 7 35 7 C 34.632813 7 33.851563 6.8125 32.9375 6.5625 L 25.65625 0.25 C 25.453125 0.0664063 25.179688 -0.0234375 24.90625 0 C 24.875 0 24.84375 0 24.8125 0 Z M 25 2.3125 L 28.5625 5.40625 C 27.425781 5.167969 26.222656 5 25 5 C 23.777344 5 22.574219 5.167969 21.4375 5.40625 Z M 6 7 C 7.832031 7 9.488281 7.449219 10.96875 7.9375 C 12.449219 8.425781 13.699219 9 15 9 C 15.742188 9 16.566406 8.804688 17.4375 8.5625 C 17.566406 8.554688 17.695313 8.523438 17.8125 8.46875 C 18.359375 8.308594 18.890625 8.140625 19.5 7.96875 C 21.238281 7.476563 23.167969 7 25 7 C 26.832031 7 28.761719 7.476563 30.5 7.96875 C 31.078125 8.132813 31.574219 8.285156 32.09375 8.4375 C 32.238281 8.515625 32.398438 8.558594 32.5625 8.5625 C 33.433594 8.804688 34.257813 9 35 9 C 36.300781 9 37.550781 8.425781 39.03125 7.9375 C 40.511719 7.449219 42.167969 7 44 7 C 45.65625 7 47 8.34375 47 10 C 47 11.667969 46.546875 13.046875 46.0625 14.3125 C 45.578125 15.578125 45 16.699219 45 18 C 45 19.300781 45.601563 20.421875 46.09375 21.5625 C 46.585938 22.703125 47 23.839844 47 25 C 47 25.734375 46.5625 26.921875 46.0625 28.15625 C 45.5625 29.390625 45 30.667969 45 32 C 45 33.332031 45.578125 34.449219 46.0625 35.6875 C 46.546875 36.925781 47 38.277344 47 40 C 47 41.65625 45.65625 43 44 43 C 42.113281 43 40.503906 42.550781 39.0625 42.0625 C 37.621094 41.574219 36.367188 41 35 41 C 33.632813 41 32.132813 41.539063 30.40625 42.03125 C 28.679688 42.523438 26.777344 43 25 43 C 23.222656 43 21.320313 42.523438 19.59375 42.03125 C 17.867188 41.539063 16.367188 41 15 41 C 13.632813 41 12.378906 41.574219 10.9375 42.0625 C 9.496094 42.550781 7.886719 43 6 43 C 4.34375 43 3 41.65625 3 40 C 3 38.277344 3.453125 36.925781 3.9375 35.6875 C 4.421875 34.449219 5 33.332031 5 32 C 5 30.667969 4.4375 29.390625 3.9375 28.15625 C 3.4375 26.921875 3 25.734375 3 25 C 3 23.839844 3.414063 22.703125 3.90625 21.5625 C 4.398438 20.421875 5 19.300781 5 18 C 5 16.699219 4.421875 15.578125 3.9375 14.3125 C 3.453125 13.046875 3 11.667969 3 10 C 3 8.34375 4.34375 7 6 7 Z M 10 11 C 8.355469 11 7 12.355469 7 14 L 7 36 C 7 37.644531 8.355469 39 10 39 L 40 39 C 41.644531 39 43 37.644531 43 36 L 43 14 C 43 12.355469 41.644531 11 40 11 Z M 10 13 L 40 13 C 40.554688 13 41 13.445313 41 14 L 41 36 C 41 36.554688 40.554688 37 40 37 L 10 37 C 9.445313 37 9 36.554688 9 36 L 9 14 C 9 13.445313 9.445313 13 10 13 Z M 25 15.1875 C 23.105469 15.1875 21.59375 16.605469 21.25 18.40625 C 19.496094 17.789063 17.484375 18.429688 16.53125 20.09375 C 15.582031 21.753906 16.058594 23.800781 17.46875 25 C 16.058594 26.199219 15.582031 28.246094 16.53125 29.90625 C 17.484375 31.570313 19.496094 32.210938 21.25 31.59375 C 21.59375 33.394531 23.105469 34.8125 25 34.8125 C 26.894531 34.8125 28.40625 33.394531 28.75 31.59375 C 30.503906 32.210938 32.515625 31.570313 33.46875 29.90625 L 33.46875 29.875 C 34.398438 28.21875 33.933594 26.191406 32.53125 25 C 33.941406 23.800781 34.417969 21.753906 33.46875 20.09375 L 33.4375 20.03125 C 32.472656 18.410156 30.484375 17.796875 28.75 18.40625 C 28.40625 16.605469 26.894531 15.1875 25 15.1875 Z M 25 17.1875 C 26.046875 17.1875 26.890625 18.019531 26.90625 19.0625 C 26.878906 19.085938 26.8125 19.289063 26.8125 19.6875 L 26.8125 20.125 L 27.09375 20.40625 C 27.261719 20.574219 27.449219 20.664063 27.5 20.6875 L 28.09375 21.3125 L 28.8125 20.59375 C 29.011719 20.394531 28.980469 20.445313 29.0625 20.40625 L 29.0625 20.375 L 29.09375 20.375 C 30.015625 19.847656 31.1875 20.164063 31.71875 21.09375 C 32.246094 22.015625 31.929688 23.1875 31 23.71875 L 30.90625 23.78125 C 30.898438 23.785156 30.886719 23.808594 30.875 23.8125 C 30.789063 23.835938 30.714844 23.828125 30.5625 23.90625 L 30 24.1875 L 30 26.1875 L 30.8125 26.1875 C 30.847656 26.203125 30.933594 26.214844 31 26.25 L 31 26.28125 C 31.929688 26.8125 32.246094 27.984375 31.71875 28.90625 C 31.1875 29.835938 30.015625 30.152344 29.09375 29.625 L 29.0625 29.625 L 29.0625 29.59375 C 29.101563 29.613281 28.914063 29.507813 28.8125 29.40625 L 28.09375 28.6875 L 27.5 29.3125 C 27.449219 29.335938 27.261719 29.425781 27.09375 29.59375 L 26.59375 30.09375 L 26.90625 30.75 C 26.886719 30.710938 26.90625 30.707031 26.90625 30.90625 C 26.90625 31.964844 26.058594 32.8125 25 32.8125 C 23.941406 32.8125 23.09375 31.964844 23.09375 30.90625 C 23.121094 30.851563 23.1875 30.671875 23.1875 30.3125 L 23.1875 29.875 L 22.90625 29.59375 C 22.738281 29.425781 22.550781 29.335938 22.5 29.3125 L 21.90625 28.6875 L 21.1875 29.40625 C 20.988281 29.605469 21.019531 29.554688 20.9375 29.59375 L 20.9375 29.625 L 20.90625 29.625 C 19.984375 30.152344 18.8125 29.835938 18.28125 28.90625 C 17.753906 27.984375 18.070313 26.8125 19 26.28125 L 19.09375 26.21875 L 19.125 26.1875 C 19.210938 26.164063 19.285156 26.171875 19.4375 26.09375 L 20 25.8125 L 20 23.8125 L 19.1875 23.8125 C 19.152344 23.796875 19.066406 23.785156 19 23.75 L 19 23.71875 C 18.070313 23.1875 17.753906 22.015625 18.28125 21.09375 C 18.8125 20.164063 19.984375 19.847656 20.90625 20.375 L 20.9375 20.375 L 20.9375 20.40625 C 20.898438 20.386719 21.085938 20.492188 21.1875 20.59375 L 21.90625 21.3125 L 22.5 20.6875 C 22.550781 20.664063 22.738281 20.574219 22.90625 20.40625 L 23.40625 19.90625 L 23.09375 19.25 C 23.113281 19.289063 23.09375 19.292969 23.09375 19.09375 C 23.09375 18.035156 23.941406 17.1875 25 17.1875 Z M 25 21 C 22.800781 21 21 22.800781 21 25 C 21 27.199219 22.800781 29 25 29 C 27.199219 29 29 27.199219 29 25 C 29 22.800781 27.199219 21 25 21 Z M 25 23 C 26.117188 23 27 23.882813 27 25 C 27 26.117188 26.117188 27 25 27 C 23.882813 27 23 26.117188 23 25 C 23 23.882813 23.882813 23 25 23 Z"/></svg>