<svg xmlns="http://www.w3.org/2000/svg"  viewBox="0 0 50 50" width="500px" height="500px"><path d="M 13 12 C 5.855469 12 0 17.855469 0 25 C 0 25.03125 0 25.0625 0 25.09375 C 0.0507813 32.25 5.832031 38 13 38 C 18.699219 38 21.707031 34.40625 23.90625 29.90625 C 23.507813 29.105469 23.210938 28.300781 22.8125 27.5 C 20.710938 32.199219 18.199219 36 13 36 C 6.953125 36 2.082031 31.183594 2 25.15625 C 2.003906 25.105469 2.003906 25.050781 2 25 C 2 18.945313 6.945313 14 13 14 C 16.214844 14 18.226563 15.289063 19.90625 17.375 C 21.585938 19.460938 22.8125 22.375 24.0625 25.375 C 25.3125 28.375 26.585938 31.460938 28.53125 33.875 C 30.476563 36.289063 33.214844 38 37 38 C 44.144531 38 50 32.144531 50 25 C 50 24.96875 50 24.9375 50 24.90625 C 49.949219 17.75 44.167969 12 37 12 C 31.300781 12 28.292969 15.601563 26.09375 20 C 26.492188 20.800781 26.789063 21.605469 27.1875 22.40625 C 29.289063 17.804688 31.800781 14 37 14 C 43.046875 14 47.917969 18.816406 48 24.84375 C 47.996094 24.894531 47.996094 24.949219 48 25 C 48 31.054688 43.054688 36 37 36 C 33.785156 36 31.773438 34.710938 30.09375 32.625 C 28.414063 30.539063 27.1875 27.625 25.9375 24.625 C 24.6875 21.625 23.414063 18.539063 21.46875 16.125 C 19.523438 13.710938 16.785156 12 13 12 Z"/></svg>