<svg xmlns="http://www.w3.org/2000/svg"  viewBox="0 0 50 50" width="500px" height="500px"><path d="M 24.890625 3 C 18.386978 3 12.056725 4.3007292 6.5605469 6.7792969 L 6.5585938 6.7792969 C 4.3778149 7.7652859 3.3980742 10.356341 4.3964844 12.525391 L 4.3964844 12.527344 C 5.028402 13.895817 6.2977854 14.78016 7.6972656 15 L 18 36.910156 L 18 37 C 18.01394 37 18.02709 36.996187 18.041016 36.996094 L 21.767578 44.921875 C 22.401771 46.270965 23.726897 47 25.021484 47 C 26.316072 47 27.639243 46.270965 28.273438 44.921875 L 42.294922 15.103516 C 43.687171 14.888915 44.951525 14.013375 45.589844 12.65625 C 46.60584 10.494832 45.642384 7.8954897 43.46875 6.8945312 L 43.466797 6.8925781 C 37.914803 4.3383013 31.498054 3 24.890625 3 z M 24.890625 5 C 31.228294 5 37.371423 6.289939 42.632812 8.7109375 C 43.83336 9.2628477 44.332899 10.62696 43.779297 11.804688 C 43.37647 12.661136 42.523578 13.158203 41.628906 13.158203 C 41.294257 13.158203 40.955595 13.089443 40.630859 12.939453 L 40.628906 12.939453 C 35.929608 10.777796 30.53504 9.9375 24.9375 9.9375 C 19.426095 9.9375 14.016633 10.743287 9.3574219 12.845703 C 8.1486961 13.389879 6.7589667 12.87005 6.2128906 11.689453 C 5.6695145 10.508967 6.1806055 9.1479562 7.3828125 8.6035156 C 12.592635 6.2540833 18.654272 5 24.890625 5 z M 24.9375 11.9375 C 30.333005 11.9375 35.444814 12.756289 39.792969 14.755859 C 39.919373 14.814153 40.04855 14.862823 40.177734 14.908203 L 32.929688 30.322266 C 32.322696 30.116042 31.673891 30 31 30 C 27.698375 30 25 32.698375 25 36 C 25 38.153046 26.144253 40.047367 27.859375 41.105469 L 26.464844 44.070312 C 26.156037 44.727224 25.603397 45 25.021484 45 C 24.439572 45 23.886932 44.727224 23.578125 44.070312 L 20.078125 36.628906 C 22.36847 35.780798 24 33.573463 24 31 C 24 27.698375 21.301625 25 18 25 C 16.906885 25 15.882248 25.304083 14.996094 25.818359 L 9.8105469 14.792969 C 9.9329521 14.750483 10.057486 14.724058 10.177734 14.669922 L 10.179688 14.669922 C 14.482429 12.728291 19.622905 11.9375 24.9375 11.9375 z M 18 15 A 2 2 0 0 0 16 17 A 2 2 0 0 0 18 19 A 2 2 0 0 0 20 17 A 2 2 0 0 0 18 15 z M 32 15 A 2 2 0 0 0 30 17 A 2 2 0 0 0 32 19 A 2 2 0 0 0 34 17 A 2 2 0 0 0 32 15 z M 29.023438 20.988281 A 1.0001 1.0001 0 0 0 28.191406 21.410156 C 28.191406 21.410156 27.015066 23 25 23 C 22.984934 23 21.808594 21.410156 21.808594 21.410156 A 1.0008697 1.0008697 0 1 0 20.191406 22.589844 C 20.191406 22.589844 21.935066 25 25 25 C 28.064934 25 29.808594 22.589844 29.808594 22.589844 A 1.0001 1.0001 0 0 0 29.023438 20.988281 z M 18 27 C 20.220375 27 22 28.779625 22 31 C 22 32.792682 20.82938 34.283914 19.21875 34.798828 L 15.849609 27.632812 C 16.469887 27.234626 17.202556 27 18 27 z M 31 32 C 31.373353 32 31.729893 32.055644 32.070312 32.150391 L 28.71875 39.277344 C 27.683684 38.556347 27 37.365485 27 36 C 27 33.779625 28.779625 32 31 32 z"/></svg>