<svg xmlns="http://www.w3.org/2000/svg"  viewBox="0 0 50 50" width="500px" height="500px"><path d="M 22 5 A 1.0001 1.0001 0 0 0 21 6 L 21 18.103516 L 10.496094 12.089844 A 1.0001 1.0001 0 0 0 9.1328125 12.460938 L 6.1523438 17.669922 A 1.0001 1.0001 0 0 0 6.5234375 19.033203 L 16.949219 25 L 6.5234375 30.966797 A 1.0001 1.0001 0 0 0 6.1523438 32.330078 L 9.1328125 37.539062 A 1.0001 1.0001 0 0 0 10.496094 37.910156 L 21 31.896484 L 21 44 A 1.0001 1.0001 0 0 0 22 45 L 28 45 A 1.0001 1.0001 0 0 0 29 44 L 29 31.896484 L 39.503906 37.910156 A 1.0001 1.0001 0 0 0 40.867188 37.539062 L 43.847656 32.330078 A 1.0001 1.0001 0 0 0 43.476562 30.966797 L 33.050781 25 L 43.476562 19.033203 A 1.0001 1.0001 0 0 0 43.847656 17.669922 L 40.867188 12.460938 A 1.0001 1.0001 0 0 0 39.503906 12.089844 L 29 18.103516 L 29 6 A 1.0001 1.0001 0 0 0 28 5 L 22 5 z M 23 7 L 27 7 L 27 19.826172 A 1.0001 1.0001 0 0 0 28.496094 20.693359 L 39.628906 14.322266 L 41.615234 17.794922 L 30.542969 24.132812 A 1.0001 1.0001 0 0 0 30.542969 25.867188 L 41.615234 32.205078 L 39.628906 35.677734 L 28.496094 29.306641 A 1.0001 1.0001 0 0 0 27 30.173828 L 27 43 L 23 43 L 23 30.173828 A 1.0001 1.0001 0 0 0 21.503906 29.306641 L 10.371094 35.677734 L 8.3847656 32.205078 L 19.457031 25.867188 A 1.0001 1.0001 0 0 0 19.457031 24.132812 L 8.3847656 17.794922 L 10.371094 14.322266 L 21.503906 20.693359 A 1.0001 1.0001 0 0 0 23 19.826172 L 23 7 z"/></svg>