<svg xmlns="http://www.w3.org/2000/svg"  viewBox="0 0 50 50" width="500px" height="500px"><path d="M 12 0 L 12 28 C 11.996094 28.359375 12.183594 28.695313 12.496094 28.878906 C 12.808594 29.058594 13.191406 29.058594 13.503906 28.878906 C 13.816406 28.695313 14.003906 28.359375 14 28 L 14 10.40625 C 14 9.007813 14.578125 8.488281 15.46875 7.96875 C 15.914063 7.707031 16.433594 7.503906 16.9375 7.28125 C 17.441406 7.058594 17.949219 6.863281 18.40625 6.40625 C 18.863281 5.949219 19.070313 5.425781 19.28125 4.90625 C 19.492188 4.386719 19.664063 3.84375 19.875 3.375 C 20.085938 2.90625 20.335938 2.535156 20.5625 2.3125 C 20.789063 2.089844 20.96875 2 21.3125 2 L 28.6875 2 C 29.03125 2 29.210938 2.089844 29.4375 2.3125 C 29.664063 2.535156 29.914063 2.90625 30.125 3.375 C 30.335938 3.84375 30.507813 4.386719 30.71875 4.90625 C 30.929688 5.425781 31.136719 5.949219 31.59375 6.40625 C 32.050781 6.863281 32.558594 7.058594 33.0625 7.28125 C 33.566406 7.503906 34.085938 7.707031 34.53125 7.96875 C 35.421875 8.488281 36 9.007813 36 10.40625 L 36 28 C 35.996094 28.359375 36.183594 28.695313 36.496094 28.878906 C 36.808594 29.058594 37.191406 29.058594 37.503906 28.878906 C 37.816406 28.695313 38.003906 28.359375 38 28 L 38 0 Z M 14 2 L 18.34375 2 C 18.242188 2.1875 18.148438 2.375 18.0625 2.5625 C 17.800781 3.144531 17.589844 3.703125 17.40625 4.15625 C 17.222656 4.609375 17.042969 4.957031 17 5 C 16.957031 5.042969 16.625 5.230469 16.15625 5.4375 C 15.6875 5.644531 15.074219 5.898438 14.46875 6.25 C 14.308594 6.34375 14.160156 6.445313 14 6.5625 Z M 31.65625 2 L 36 2 L 36 6.5625 C 35.839844 6.445313 35.691406 6.34375 35.53125 6.25 C 34.925781 5.898438 34.3125 5.644531 33.84375 5.4375 C 33.375 5.230469 33.042969 5.042969 33 5 C 32.957031 4.957031 32.777344 4.609375 32.59375 4.15625 C 32.410156 3.703125 32.199219 3.144531 31.9375 2.5625 C 31.851563 2.375 31.757813 2.1875 31.65625 2 Z M 16 3 C 15.449219 3 15 3.449219 15 4 C 15 4.550781 15.449219 5 16 5 C 16.550781 5 17 4.550781 17 4 C 17 3.449219 16.550781 3 16 3 Z M 34 3 C 33.449219 3 33 3.449219 33 4 C 33 4.550781 33.449219 5 34 5 C 34.550781 5 35 4.550781 35 4 C 35 3.449219 34.550781 3 34 3 Z M 25 4 C 22.800781 4 21 5.800781 21 8 C 21 10.199219 22.800781 12 25 12 C 27.199219 12 29 10.199219 29 8 C 29 5.800781 27.199219 4 25 4 Z M 25 6 C 26.117188 6 27 6.882813 27 8 C 27 9.117188 26.117188 10 25 10 C 23.882813 10 23 9.117188 23 8 C 23 6.882813 23.882813 6 25 6 Z M 25 7 C 24.449219 7 24 7.449219 24 8 C 24 8.550781 24.449219 9 25 9 C 25.550781 9 26 8.550781 26 8 C 26 7.449219 25.550781 7 25 7 Z M 39.84375 10.6875 C 39.449219 10.734375 39.125 11.011719 39.007813 11.390625 C 38.894531 11.769531 39.011719 12.179688 39.3125 12.4375 L 47.03125 19.625 C 47.03125 19.636719 47.03125 19.644531 47.03125 19.65625 C 47.597656 20.148438 48 21.015625 48 21.8125 L 48 22.53125 L 33.6875 33.78125 C 32.304688 32.695313 29.992188 30.902344 29.6875 30.65625 L 29.625 30.625 C 27.894531 29.242188 26.046875 29 25 29 C 23.878906 29 22.109375 29.34375 20.40625 30.59375 L 20.375 30.625 C 20.082031 30.859375 17.722656 32.707031 16.3125 33.8125 L 2 22.53125 L 2 21.8125 C 2 20.835938 2.269531 20.183594 2.96875 19.5625 L 10.65625 12.75 C 10.960938 12.527344 11.113281 12.152344 11.050781 11.777344 C 10.988281 11.40625 10.71875 11.101563 10.359375 10.988281 C 10 10.878906 9.605469 10.980469 9.34375 11.25 L 1.625 18.0625 C 0.527344 19.039063 0 20.390625 0 21.8125 L 0 49 C 0 49.550781 0.449219 50 1 50 L 49 50 C 49.550781 50 50 49.550781 50 49 L 50 21.8125 C 50 20.417969 49.367188 19.09375 48.34375 18.1875 L 48.34375 18.15625 L 40.6875 10.96875 C 40.464844 10.75 40.152344 10.644531 39.84375 10.6875 Z M 25 15 C 20.113281 15 16 18.578125 16 23.09375 C 16 25.273438 16.960938 27.148438 18.40625 28.59375 C 18.648438 28.890625 19.035156 29.027344 19.410156 28.941406 C 19.78125 28.855469 20.074219 28.5625 20.160156 28.191406 C 20.246094 27.816406 20.109375 27.429688 19.8125 27.1875 C 19.699219 27.074219 19.601563 26.960938 19.5 26.84375 C 19.792969 26.667969 20 26.363281 20 26 C 20 25.449219 19.550781 25 19 25 C 18.789063 25 18.597656 25.074219 18.4375 25.1875 C 18.160156 24.542969 18 23.855469 18 23.09375 C 18 22.304688 18.175781 21.542969 18.5 20.84375 C 18.648438 20.933594 18.8125 21 19 21 C 19.550781 21 20 20.550781 20 20 C 20 19.683594 19.851563 19.402344 19.625 19.21875 C 20.148438 18.667969 20.785156 18.207031 21.5 17.84375 C 21.648438 17.933594 21.8125 18 22 18 C 22.449219 18 22.8125 17.6875 22.9375 17.28125 C 23.589844 17.105469 24.277344 17 25 17 C 25.722656 17 26.410156 17.105469 27.0625 17.28125 C 27.1875 17.6875 27.550781 18 28 18 C 28.1875 18 28.351563 17.933594 28.5 17.84375 C 29.214844 18.207031 29.851563 18.667969 30.375 19.21875 C 30.148438 19.402344 30 19.683594 30 20 C 30 20.550781 30.449219 21 31 21 C 31.1875 21 31.351563 20.933594 31.5 20.84375 C 31.824219 21.542969 32 22.304688 32 23.09375 C 32 23.8125 31.847656 24.519531 31.5625 25.1875 C 31.402344 25.074219 31.210938 25 31 25 C 30.449219 25 30 25.449219 30 26 C 30 26.363281 30.207031 26.667969 30.5 26.84375 C 30.398438 26.960938 30.296875 27.078125 30.1875 27.1875 C 29.890625 27.429688 29.753906 27.816406 29.839844 28.191406 C 29.925781 28.5625 30.21875 28.855469 30.589844 28.941406 C 30.964844 29.027344 31.351563 28.890625 31.59375 28.59375 C 33.058594 27.128906 34 25.191406 34 23.09375 C 34 18.578125 29.886719 15 25 15 Z M 25 19 C 24.449219 19 24 19.449219 24 20 C 24 20.550781 24.449219 21 25 21 C 25.550781 21 26 20.550781 26 20 C 26 19.449219 25.550781 19 25 19 Z M 22 22 C 21.449219 22 21 22.449219 21 23 C 21 23.550781 21.449219 24 22 24 C 22.550781 24 23 23.550781 23 23 C 23 22.449219 22.550781 22 22 22 Z M 28 22 C 27.449219 22 27 22.449219 27 23 C 27 23.550781 27.449219 24 28 24 C 28.550781 24 29 23.550781 29 23 C 29 22.449219 28.550781 22 28 22 Z M 25 25 C 24.449219 25 24 25.449219 24 26 C 24 26.550781 24.449219 27 25 27 C 25.550781 27 26 26.550781 26 26 C 26 25.449219 25.550781 25 25 25 Z M 2 25.09375 L 14.6875 35.09375 C 9.414063 39.226563 3.480469 43.871094 2 45.03125 Z M 48 25.09375 L 48 45.03125 C 46.515625 43.867188 40.574219 39.191406 35.3125 35.0625 Z M 25 31 C 25.75 31 27.105469 31.171875 28.375 32.1875 C 29.921875 33.425781 47.496094 47.167969 48 47.5625 L 48 48 L 2 48 L 2 47.5625 C 2.5 47.171875 19.992188 33.496094 21.59375 32.21875 C 21.597656 32.214844 21.621094 32.191406 21.625 32.1875 C 22.910156 31.257813 24.328125 31 25 31 Z"/></svg>