<svg xmlns="http://www.w3.org/2000/svg"  viewBox="0 0 50 50" width="500px" height="500px"><path d="M 9.984375 3.9863281 A 1.0001 1.0001 0 0 0 9.8398438 4 L 3 4 C 2.447 4 2 4.448 2 5 L 2 29 C 2 29.552 2.447 30 3 30 L 9.8320312 30 A 1.0001 1.0001 0 0 0 10.158203 30 L 28 30 L 28 28 L 11 28 L 11 6 L 39 6 L 39 25.966797 C 39.317 25.927797 39.645 25.900391 40 25.900391 C 40.355 25.900391 40.683 25.927797 41 25.966797 L 41 6 L 46 6 L 46 27.859375 C 46.562 28.091375 47.21 28.320922 48 28.544922 L 48 5 C 48 4.448 47.553 4 47 4 L 10.154297 4 A 1.0001 1.0001 0 0 0 9.984375 3.9863281 z M 4 6 L 9 6 L 9 28 L 4 28 L 4 6 z M 25 9 C 22.052633 9 19.698522 11.189731 19.203125 14 L 19 14 C 16.802666 14 15 15.802666 15 18 C 15 20.197334 16.802666 22 19 22 A 1.0001 1.0001 0 1 0 19 20 C 17.883334 20 17 19.116666 17 18 C 17 16.883334 17.883334 16 19 16 L 20 16 A 1.0001 1.0001 0 0 0 21 15 C 21 12.779625 22.779625 11 25 11 C 27.220375 11 29 12.779625 29 15 A 1.0001 1.0001 0 0 0 30 16 L 31 16 C 32.116666 16 33 16.883334 33 18 C 33 19.116666 32.116666 20 31 20 A 1.0001 1.0001 0 1 0 31 22 C 33.197334 22 35 20.197334 35 18 C 35 15.802666 33.197334 14 31 14 L 30.796875 14 C 30.301478 11.189731 27.947367 9 25 9 z M 40 27.900391 C 38.5 27.900391 37.500781 28.4 36.300781 29 C 35.100781 29.6 33.600781 30.300391 30.800781 30.900391 L 30 31.099609 L 30 31.900391 C 30 44.900391 39.2 49.600781 39.5 49.800781 L 40 50 L 40.5 49.800781 C 40.9 49.600781 50 44.500391 50 31.900391 L 50 31.099609 L 49.199219 30.900391 C 46.399219 30.300391 44.899219 29.6 43.699219 29 C 42.499219 28.4 41.5 27.900391 40 27.900391 z M 40 29.900391 C 41.1 29.900391 41.700781 30.200781 42.800781 30.800781 C 44.000781 31.300781 45.5 32.099219 48 32.699219 C 47.7 41.999219 41.7 46.599219 40 47.699219 C 38.2 46.699219 32.3 42.399219 32 32.699219 C 34.6 32.099219 36.099219 31.300781 37.199219 30.800781 C 38.299219 30.200781 38.9 29.900391 40 29.900391 z M 3 31 C 2.447 31 2 31.448 2 32 C 2 32.552 2.447 33 3 33 C 13.592 33 21.902922 33.810078 28.169922 34.830078 C 28.099922 34.163078 28.054203 33.471813 28.033203 32.757812 C 21.739203 31.767813 13.485 31 3 31 z M 3 34 C 2.447 34 2 34.448 2 35 C 2 35.552 2.447 36 3 36 C 14.601 36 23.237531 37.908156 29.269531 40.035156 C 29.018531 39.288156 28.810953 38.48625 28.626953 37.65625 C 22.509953 35.66625 14.085 34 3 34 z"/></svg>