<svg xmlns="http://www.w3.org/2000/svg"  viewBox="0 0 32 32" width="500px" height="500px"><path d="M 11 4 C 9.4573607 4 8.0465064 4.3631724 6.9492188 5.0214844 C 5.8519311 5.6797963 5 6.7210876 5 8 L 5 12 L 5 16 L 5 20 L 5 24 C 5 25.278711 5.8520025 26.320156 6.9492188 26.978516 C 8.046435 27.636876 9.4569194 28 11 28 C 12.543081 28 13.953565 27.636876 15.050781 26.978516 C 15.400116 26.768905 15.719962 26.516944 16 26.234375 C 16.280038 26.516944 16.599884 26.768905 16.949219 26.978516 C 18.046435 27.636876 19.456919 28 21 28 C 22.543081 28 23.953565 27.636876 25.050781 26.978516 C 26.147998 26.320156 27 25.278711 27 24 L 27 20 L 27 16 C 27 14.721088 26.148069 13.679796 25.050781 13.021484 C 23.953494 12.363172 22.542639 12 21 12 C 19.479663 12 18.090321 12.355724 17 12.996094 L 17 12 L 17 8 C 17 6.7210876 16.148069 5.6797963 15.050781 5.0214844 C 13.953494 4.3631724 12.542639 4 11 4 z M 11 6 C 12.218361 6 13.309022 6.3088901 14.021484 6.7363281 C 14.733947 7.1637662 15 7.6219124 15 8 C 15 8.3780876 14.733947 8.8362338 14.021484 9.2636719 C 13.309022 9.6911099 12.218361 10 11 10 C 9.7816393 10 8.690978 9.6911099 7.9785156 9.2636719 C 7.2660533 8.8362338 7 8.3780876 7 8 C 7 7.6219124 7.2660533 7.1637662 7.9785156 6.7363281 C 8.690978 6.3088901 9.7816393 6 11 6 z M 7 11.003906 C 8.0903219 11.644276 9.479663 12 11 12 C 12.520337 12 13.909679 11.644276 15 11.003906 L 15 12 C 15 12.378289 14.733768 12.836282 14.021484 13.263672 C 13.309201 13.691062 12.218919 14 11 14 C 9.7810806 14 8.6907994 13.691062 7.9785156 13.263672 C 7.2662319 12.836282 7 12.378289 7 12 L 7 11.003906 z M 21 14 C 22.218361 14 23.309022 14.30889 24.021484 14.736328 C 24.733947 15.163766 25 15.621912 25 16 C 25 16.378088 24.733947 16.836234 24.021484 17.263672 C 23.309022 17.69111 22.218361 18 21 18 C 19.781639 18 18.690978 17.69111 17.978516 17.263672 C 17.266053 16.836234 17 16.378088 17 16 C 17 15.621912 17.266053 15.163766 17.978516 14.736328 C 18.690978 14.30889 19.781639 14 21 14 z M 7 15.003906 C 8.0902433 15.644321 9.4792281 16 11 16 C 12.520772 16 13.909757 15.644321 15 15.003906 L 15 16 C 15 16.378289 14.733768 16.836282 14.021484 17.263672 C 13.309201 17.691062 12.218919 18 11 18 C 9.7810806 18 8.6907994 17.691062 7.9785156 17.263672 C 7.2662319 16.836282 7 16.378289 7 16 L 7 15.003906 z M 7 19.003906 C 8.0902433 19.644321 9.4792281 20 11 20 C 12.520772 20 13.909757 19.644321 15 19.003906 L 15 20 C 15 20.378289 14.733768 20.836282 14.021484 21.263672 C 13.309201 21.691062 12.218919 22 11 22 C 9.7810806 22 8.6907994 21.691062 7.9785156 21.263672 C 7.2662319 20.836282 7 20.378289 7 20 L 7 19.003906 z M 17 19.003906 C 18.090321 19.644276 19.479663 20 21 20 C 22.520337 20 23.909679 19.644276 25 19.003906 L 25 20 C 25 20.378289 24.733768 20.836282 24.021484 21.263672 C 23.309201 21.691062 22.218919 22 21 22 C 19.781081 22 18.690799 21.691062 17.978516 21.263672 C 17.266232 20.836282 17 20.378289 17 20 L 17 19.003906 z M 7 23.003906 C 8.0902433 23.644321 9.4792281 24 11 24 C 12.520772 24 13.909757 23.644321 15 23.003906 L 15 24 C 15 24.378289 14.733768 24.836282 14.021484 25.263672 C 13.309201 25.691062 12.218919 26 11 26 C 9.7810806 26 8.6907994 25.691062 7.9785156 25.263672 C 7.2662319 24.836282 7 24.378289 7 24 L 7 23.003906 z M 17 23.003906 C 18.090243 23.644321 19.479228 24 21 24 C 22.520772 24 23.909757 23.644321 25 23.003906 L 25 24 C 25 24.378289 24.733768 24.836282 24.021484 25.263672 C 23.309201 25.691062 22.218919 26 21 26 C 19.781081 26 18.690799 25.691062 17.978516 25.263672 C 17.266232 24.836282 17 24.378289 17 24 L 17 23.003906 z"/></svg>