<svg xmlns="http://www.w3.org/2000/svg"  viewBox="0 0 30 30" width="500px" height="500px"><path d="M 15 1 C 13.895 1 13 1.895 13 3 L 13 5 C 13 3.895 12.105 3 11 3 C 9.895 3 9 3.895 9 5 L 9 5.2773438 C 8.7049394 5.1058114 8.3660536 5 8 5 C 6.895 5 6 5.895 6 7 L 6 8 L 4 8 A 2 2 0 0 0 3.6132812 8.0390625 C 3.602689 8.0411905 3.5925658 8.0445769 3.5820312 8.046875 A 2 2 0 0 0 2 10 L 2 21 C 2 22.093063 2.9069372 23 4 23 L 6 23 C 6 26.314 8.686 29 12 29 L 15.685547 29 C 17.807547 29 19.84375 28.15625 21.34375 26.65625 L 24.5 23.5 L 28.998047 21.486328 C 28.990047 19.576328 27.496 19 26 19 C 24.711 19 23.552 19.201 21 20.5 L 20 21 L 8 21 L 4 21 L 4 12 A 2 2 0 0 0 6 10 L 24 10 A 2 2 0 0 0 26 12 L 26 17 L 28 17 L 28 10 A 2 2 0 0 0 27.960938 9.6132812 C 27.95881 9.602689 27.955423 9.5925658 27.953125 9.5820312 A 2 2 0 0 0 26 8 L 21 8 L 21 4 C 21 2.895 20.105 2 19 2 C 17.895 2 17 2.895 17 4 L 17 3 C 17 1.895 16.105 1 15 1 z M 28.998047 21.486328 C 28.998047 21.491328 29 21.496 29 21.5 L 29 21.486328 L 28.998047 21.486328 z M 15 12 C 12.791 12 11 14.015 11 16.5 C 11 17.436 11.277797 18.284 11.716797 19 L 18.283203 19 C 18.722203 18.284 19 17.436 19 16.5 C 19 14.015 17.209 12 15 12 z M 7 15 A 1 1 0 0 0 6 16 A 1 1 0 0 0 7 17 A 1 1 0 0 0 8 16 A 1 1 0 0 0 7 15 z M 23 15 A 1 1 0 0 0 22 16 A 1 1 0 0 0 23 17 A 1 1 0 0 0 24 16 A 1 1 0 0 0 23 15 z"/></svg>