<svg xmlns="http://www.w3.org/2000/svg"  viewBox="0 0 50 50" width="500px" height="500px"><path d="M 14.125 3.34375 C 13.554688 3.359375 13.1875 3.40625 13.1875 3.40625 L 12.4375 3.5 L 12.3125 4.21875 C 12.3125 4.21875 11.460938 8.714844 12.9375 12.71875 C 12.65625 13.601563 12.5 14.53125 12.5 15.5 C 12.5 17.253906 13.003906 18.898438 13.875 20.34375 L 6.28125 24.09375 L 6.25 24.09375 L 6.25 24.125 C 4.285156 25.070313 3.507813 27.480469 4.53125 29.4375 C 4.539063 29.441406 4.527344 29.460938 4.53125 29.46875 C 5.460938 31.402344 7.808594 32.171875 9.75 31.21875 L 9.875 31.1875 L 13.09375 29.96875 L 13.09375 31.15625 C 12.972656 31.183594 12.839844 31.214844 12.71875 31.25 C 8.964844 32.34375 7.152344 36.742188 8.375 40.9375 C 9.597656 45.132813 13.496094 47.875 17.25 46.78125 C 19.511719 46.121094 21.066406 44.238281 21.6875 41.9375 C 22.75 41.984375 23.824219 42 25 42 C 26.164063 42 27.230469 41.984375 28.28125 41.9375 C 28.894531 44.242188 30.453125 46.121094 32.71875 46.78125 C 36.472656 47.875 40.402344 45.132813 41.625 40.9375 C 42.847656 36.742188 41.003906 32.3125 37.25 31.21875 C 37.167969 31.195313 37.082031 31.175781 37 31.15625 L 37 30.0625 L 40.34375 31.34375 L 40.34375 31.3125 C 40.894531 31.566406 41.464844 31.6875 42 31.6875 C 43.449219 31.6875 44.914063 30.890625 45.59375 29.4375 C 45.597656 29.429688 45.585938 29.410156 45.59375 29.40625 C 46.496094 27.4375 45.746094 25.042969 43.84375 24.09375 L 36.0625 20.40625 C 36.960938 18.945313 37.5 17.285156 37.5 15.5 C 37.5 14.53125 37.34375 13.601563 37.0625 12.71875 C 38.539063 8.714844 37.6875 4.21875 37.6875 4.21875 L 37.5625 3.5 L 36.8125 3.40625 C 36.8125 3.40625 35.390625 3.234375 33.6875 3.4375 C 32.144531 3.621094 30.253906 4.101563 28.96875 5.46875 C 27.714844 5.113281 26.390625 4.90625 25 4.90625 C 23.609375 4.90625 22.285156 5.113281 21.03125 5.46875 C 19.746094 4.101563 17.855469 3.621094 16.3125 3.4375 C 15.460938 3.335938 14.695313 3.328125 14.125 3.34375 Z M 14.9375 5.375 C 15.222656 5.371094 15.589844 5.378906 16.09375 5.4375 C 17.066406 5.554688 18.070313 5.820313 18.84375 6.28125 C 16.980469 7.171875 15.421875 8.445313 14.3125 10 C 13.972656 8 14.125 6.179688 14.21875 5.40625 C 14.445313 5.390625 14.652344 5.378906 14.9375 5.375 Z M 35.0625 5.375 C 35.347656 5.378906 35.554688 5.390625 35.78125 5.40625 C 35.875 6.179688 36.027344 8 35.6875 10 C 34.578125 8.445313 33.019531 7.171875 31.15625 6.28125 C 31.929688 5.820313 32.933594 5.554688 33.90625 5.4375 C 34.410156 5.378906 34.777344 5.371094 35.0625 5.375 Z M 25 6.90625 C 30.953125 6.90625 35.5 10.839844 35.5 15.5 C 35.5 20.160156 30.953125 24.09375 25 24.09375 C 19.046875 24.09375 14.5 20.160156 14.5 15.5 C 14.5 10.839844 19.046875 6.90625 25 6.90625 Z M 21 12 C 19.355469 12 18 13.355469 18 15 C 18 16.644531 19.355469 18 21 18 C 22.644531 18 24 16.644531 24 15 C 24 13.355469 22.644531 12 21 12 Z M 27.40625 12.46875 C 27.363281 12.476563 27.320313 12.488281 27.28125 12.5 C 26.90625 12.566406 26.605469 12.839844 26.5 13.203125 C 26.394531 13.570313 26.503906 13.960938 26.78125 14.21875 L 27.5625 15 L 26.78125 15.78125 C 26.382813 16.179688 26.382813 16.820313 26.78125 17.21875 C 27.179688 17.617188 27.820313 17.617188 28.21875 17.21875 L 29 16.4375 L 29.78125 17.21875 C 30.179688 17.617188 30.820313 17.617188 31.21875 17.21875 C 31.617188 16.820313 31.617188 16.179688 31.21875 15.78125 L 30.4375 15 L 31.21875 14.21875 C 31.542969 13.917969 31.628906 13.441406 31.433594 13.046875 C 31.242188 12.648438 30.808594 12.429688 30.375 12.5 C 30.152344 12.523438 29.941406 12.625 29.78125 12.78125 L 29 13.5625 L 28.21875 12.78125 C 28.011719 12.558594 27.710938 12.445313 27.40625 12.46875 Z M 21 14 C 21.5625 14 22 14.4375 22 15 C 22 15.5625 21.5625 16 21 16 C 20.4375 16 20 15.5625 20 15 C 20 14.4375 20.4375 14 21 14 Z M 15.09375 21.96875 C 17.386719 24.492188 20.980469 26.09375 25 26.09375 C 28.984375 26.09375 32.546875 24.515625 34.84375 22.03125 L 42.9375 25.90625 C 43.828125 26.351563 44.257813 27.539063 43.78125 28.5625 L 43.78125 28.59375 C 43.453125 29.316406 42.738281 29.6875 42 29.6875 C 41.765625 29.6875 41.378906 29.609375 41.15625 29.5 L 41.09375 29.46875 L 41.0625 29.46875 L 36.34375 27.65625 L 35 27.15625 L 35 31.03125 C 32.042969 31.3125 29.351563 33.714844 28.375 37.0625 C 28.089844 38.035156 27.972656 39.015625 28 39.96875 C 27.066406 40.003906 26.09375 40 25 40 C 23.90625 40 22.933594 40.003906 22 39.96875 C 22.03125 39.015625 21.910156 38.035156 21.625 37.0625 C 20.660156 33.75 18.011719 31.355469 15.09375 31.03125 L 15.09375 27.03125 L 13.75 27.5625 L 9.03125 29.375 L 8.96875 29.375 L 8.9375 29.40625 C 7.914063 29.953125 6.777344 29.558594 6.3125 28.5625 L 6.28125 28.5625 L 6.28125 28.53125 C 5.734375 27.507813 6.128906 26.371094 7.125 25.90625 L 7.15625 25.90625 Z M 14.25 33 C 16.503906 32.914063 18.867188 34.707031 19.71875 37.625 C 20.691406 40.957031 19.191406 44.113281 16.6875 44.84375 C 14.183594 45.574219 11.253906 43.707031 10.28125 40.375 C 9.308594 37.042969 10.777344 33.886719 13.28125 33.15625 C 13.59375 33.066406 13.929688 33.011719 14.25 33 Z M 35.25 33 C 35.734375 32.960938 36.21875 33.019531 36.6875 33.15625 C 39.191406 33.886719 40.691406 37.042969 39.71875 40.375 C 38.746094 43.707031 35.785156 45.574219 33.28125 44.84375 C 30.777344 44.113281 29.308594 40.957031 30.28125 37.625 C 31.070313 34.917969 33.152344 33.167969 35.25 33 Z"/></svg>