<svg xmlns="http://www.w3.org/2000/svg"  viewBox="0 0 30 30" width="500px" height="500px"><path d="M 23.933594 1.71875 L 24.873047 3.0722656 L 21.8125 4.9433594 L 17.195312 4.0195312 A 1.0001 1.0001 0 0 0 16.628906 4.0722656 L 12 5.9238281 L 7.3710938 4.0722656 A 1.0001 1.0001 0 0 0 6.5527344 4.1054688 L 2.5527344 6.1054688 A 1.0001164 1.0001164 0 1 0 3.4472656 7.8945312 L 7.0449219 6.0957031 L 11.628906 7.9277344 A 1.0001 1.0001 0 0 0 12.371094 7.9277344 L 17.095703 6.0390625 L 21.804688 6.9804688 A 1.0001 1.0001 0 0 0 22.521484 6.8535156 L 26.015625 4.7167969 L 27.160156 6.3652344 L 27.869141 2.4296875 L 23.933594 1.71875 z M 4 10 A 2 2 0 0 0 3.5996094 10.041016 A 2 2 0 0 0 2.1582031 11.226562 A 2 2 0 0 0 2.046875 11.582031 C 2.0445769 11.592566 2.0411905 11.602689 2.0390625 11.613281 A 2 2 0 0 0 2.0019531 11.976562 C 2.0018567 11.984525 2 11.992017 2 12 L 2 12.058594 L 2 24 C 2 24.004685 2.0019199 24.008994 2.0019531 24.013672 A 2 2 0 0 0 2.0390625 24.375 C 2.0415838 24.387943 2.042147 24.401205 2.0449219 24.414062 A 2 2 0 0 0 2.1582031 24.773438 A 2 2 0 0 0 2.8867188 25.65625 A 2 2 0 0 0 3.2265625 25.841797 A 2 2 0 0 0 3.5820312 25.953125 C 3.5944339 25.955831 3.6066582 25.958468 3.6191406 25.960938 A 2 2 0 0 0 4 26 L 26 26 A 2 2 0 0 0 26.400391 25.958984 A 2 2 0 0 0 27.841797 24.773438 A 2 2 0 0 0 27.953125 24.417969 C 27.955423 24.407434 27.95881 24.397311 27.960938 24.386719 A 2 2 0 0 0 27.998047 24.023438 C 27.998143 24.015475 28 24.007983 28 24 L 28 23.941406 L 28 12 C 28 11.995315 27.99808 11.991006 27.998047 11.986328 A 2 2 0 0 0 27.960938 11.625 C 27.958416 11.612057 27.957853 11.598795 27.955078 11.585938 A 2 2 0 0 0 27.841797 11.226562 A 2 2 0 0 0 27.113281 10.34375 A 2 2 0 0 0 26.773438 10.158203 A 2 2 0 0 0 26.417969 10.046875 C 26.405566 10.044169 26.393342 10.041532 26.380859 10.039062 A 2 2 0 0 0 26 10 L 4 10 z M 5.9980469 12 L 24.001953 12 A 2 2 0 0 0 26 14 L 26 22 A 2 2 0 0 0 24.001953 24 L 5.9980469 24 A 2 2 0 0 0 4 22 L 4 14 A 2 2 0 0 0 5.9980469 12 z M 15 14 C 12.791 14 11 16.015 11 18.5 C 11 19.922 11.597672 21.175 12.513672 22 L 17.486328 22 C 18.402328 21.175 19 19.922 19 18.5 C 19 16.015 17.209 14 15 14 z M 7 17 A 1 1 0 0 0 7 19 A 1 1 0 0 0 7 17 z M 23 17 A 1 1 0 0 0 23 19 A 1 1 0 0 0 23 17 z"/></svg>