<svg xmlns="http://www.w3.org/2000/svg"  viewBox="0 0 50 50" width="500px" height="500px"><path d="M 22 4 C 20.425781 4 19.132813 5.242188 19.019531 6.789063 C 19.007813 6.859375 19 6.929688 19 7 C 19 7.003906 19 7.003906 19 7.007813 C 19 7.007813 18.996094 8.710938 19.871094 10.449219 C 20.15625 11.019531 20.570313 11.589844 21.097656 12.109375 C 15.089844 12.527344 9.730469 14.035156 9.730469 14.035156 C 9.714844 14.042969 9.699219 14.046875 9.683594 14.050781 L 6.683594 15.050781 C 6.160156 15.226563 5.875 15.792969 6.050781 16.316406 C 6.226563 16.839844 6.792969 17.125 7.316406 16.949219 L 10.285156 15.957031 C 10.316406 15.949219 17.328125 14 24 14 C 24.351563 14 24.679688 13.96875 25 13.929688 C 25.320313 13.96875 25.648438 14 26 14 C 32.671875 14 39.683594 15.949219 39.714844 15.957031 L 42.683594 16.949219 C 43.207031 17.125 43.773438 16.839844 43.949219 16.316406 C 44.125 15.792969 43.839844 15.226563 43.316406 15.050781 L 40.316406 14.050781 C 40.300781 14.046875 40.285156 14.042969 40.269531 14.035156 C 40.269531 14.035156 34.910156 12.527344 28.902344 12.109375 C 29.429688 11.589844 29.84375 11.019531 30.128906 10.449219 C 31.003906 8.710938 31 7.007813 31 7.007813 C 31 7.003906 31 7.003906 31 7 C 31 6.925781 30.992188 6.851563 30.980469 6.78125 C 30.863281 5.238281 29.570313 4 28 4 C 26.355469 4 25 5.355469 25 7 C 25 8.644531 26.355469 10 28 10 C 28.035156 10 28.066406 9.992188 28.097656 9.992188 C 27.539063 10.90625 26.664063 11.703125 25 11.933594 C 23.335938 11.703125 22.460938 10.90625 21.902344 9.992188 C 21.933594 9.992188 21.964844 10 22 10 C 23.644531 10 25 8.644531 25 7 C 25 5.355469 23.644531 4 22 4 Z M 22 6 C 22.5625 6 23 6.4375 23 7 C 23 7.5625 22.5625 8 22 8 C 21.4375 8 21 7.5625 21 7 C 21 6.996094 21 6.992188 21 6.992188 C 21.003906 6.433594 21.4375 6 22 6 Z M 28 6 C 28.5625 6 29 6.433594 29 7 C 29 7 29 7.007813 29 7.007813 C 28.992188 7.566406 28.5625 8 28 8 C 27.4375 8 27 7.5625 27 7 C 27 6.4375 27.4375 6 28 6 Z M 24 16 C 17.160156 16 10.339844 17.871094 9.890625 17.996094 C 9.859375 17.992188 9.824219 17.988281 9.789063 17.988281 C 9.421875 17.980469 9.082031 18.175781 8.898438 18.496094 C 3.992188 26.863281 4 35 4 35 C 4 41.046875 8.953125 46 15 46 L 35 46 C 41.046875 46 46 41.046875 46 35 C 46 34.996094 46 34.996094 46 34.992188 C 46 34.992188 45.945313 26.800781 41.097656 18.496094 C 40.898438 18.125 40.484375 17.921875 40.066406 17.984375 C 39.515625 17.832031 32.785156 16 26 16 Z M 24 18 L 26 18 C 32.511719 18 39.261719 19.835938 39.609375 19.933594 C 43.921875 27.597656 44 34.996094 44 35.003906 C 43.996094 39.957031 39.953125 44 35 44 L 15 44 C 10.046875 44 6 39.953125 6 35 C 6 35 6.015625 27.660156 10.390625 19.933594 C 10.730469 19.835938 17.484375 18 24 18 Z"/></svg>