<svg xmlns="http://www.w3.org/2000/svg"  viewBox="0 0 50 50" width="500px" height="500px"><path d="M 24.992188 0 A 1.0001 1.0001 0 0 0 24.527344 0.11914062 L 2.5273438 11.917969 A 1.0001 1.0001 0 0 0 2 12.800781 L 2 17.300781 A 1.0001 1.0001 0 0 0 3.4765625 18.179688 L 4 17.896484 L 4 45 A 1.0001 1.0001 0 0 0 5 46 L 45 46 A 1.0001 1.0001 0 0 0 46 45 L 46 17.896484 L 46.523438 18.179688 A 1.0001 1.0001 0 0 0 48 17.300781 L 48 12.800781 A 1.0001 1.0001 0 0 0 47.472656 11.917969 L 25.472656 0.11914062 A 1.0001 1.0001 0 0 0 24.992188 0 z M 25 2.1347656 L 46 13.398438 L 46 15.621094 L 25.476562 4.5195312 A 1.0001 1.0001 0 0 0 24.523438 4.5195312 L 4 15.621094 L 4 13.398438 L 25 2.1347656 z M 25 6.5371094 L 44 16.814453 L 44 44 L 6 44 L 6 16.814453 L 25 6.5371094 z M 24 16 L 24 18.099609 C 20.557 18.462609 18.423828 20.501938 18.423828 23.460938 C 18.423828 31.000937 29.634766 27.458156 29.634766 32.660156 C 29.634766 34.670156 27.75 36.011719 25 36.011719 C 22.25 36.011719 20.433203 34.480437 20.283203 32.648438 L 17.945312 32.648438 C 17.959312 35.649437 20.337 37.783078 24 38.080078 L 24 40 L 26 40 L 26 38.060547 C 29.792 37.718547 32 35.681703 32 32.470703 C 32 25.042703 20.775391 28.025219 20.775391 23.324219 C 20.775391 21.615219 22.292 20.193359 25 20.193359 C 27.708 20.193359 29.265312 21.724594 29.320312 23.433594 L 31.644531 23.433594 C 31.549531 20.496594 29.334 18.410844 26 18.089844 L 26 16 L 24 16 z"/></svg>