<svg xmlns="http://www.w3.org/2000/svg"  viewBox="0 0 50 50" width="500px" height="500px"><path d="M 3.84375 3 C 3.117188 3 2.390625 3.296875 1.84375 3.84375 C 0.746094 4.941406 0.746094 6.746094 1.84375 7.84375 L 10 16 L 2 16 C 0.90625 16 0 16.90625 0 18 L 0 24 C 0 25.09375 0.90625 26 2 26 L 2.46875 26 L 7.8125 44.53125 C 8.117188 45.585938 9.054688 46 10 46 L 40 46 C 40.945313 46 41.882813 45.585938 42.1875 44.53125 L 47.53125 26 L 48 26 C 49.09375 26 50 25.09375 50 24 L 50 18 C 50 16.90625 49.09375 16 48 16 L 40 16 L 48.15625 7.84375 C 49.253906 6.746094 49.253906 4.941406 48.15625 3.84375 C 47.609375 3.296875 46.882813 3 46.15625 3 C 45.429688 3 44.703125 3.296875 44.15625 3.84375 L 31.96875 16 L 18.03125 16 L 5.84375 3.84375 C 5.296875 3.296875 4.570313 3 3.84375 3 Z M 3.8125 5 C 4.019531 5 4.238281 5.082031 4.40625 5.25 L 17.75 18.59375 C 18.085938 18.929688 18.085938 19.414063 17.75 19.75 C 17.585938 19.914063 17.398438 20 17.1875 20 C 16.972656 20 16.761719 19.917969 16.59375 19.75 L 3.25 6.40625 C 2.917969 6.074219 2.917969 5.582031 3.25 5.25 C 3.417969 5.082031 3.605469 5 3.8125 5 Z M 46.1875 5 C 46.394531 5 46.582031 5.082031 46.75 5.25 C 47.082031 5.582031 47.082031 6.074219 46.75 6.40625 L 33.40625 19.75 C 33.238281 19.917969 33.027344 20 32.8125 20 C 32.601563 20 32.414063 19.914063 32.25 19.75 C 31.914063 19.414063 31.914063 18.929688 32.25 18.59375 L 45.59375 5.25 C 45.761719 5.082031 45.980469 5 46.1875 5 Z M 2 18 L 12 18 L 15.15625 21.15625 C 15.167969 21.167969 15.175781 21.175781 15.1875 21.1875 C 15.734375 21.734375 16.464844 22 17.1875 22 C 17.910156 22 18.640625 21.703125 19.1875 21.15625 C 20.035156 20.308594 20.214844 19.042969 19.75 18 L 30.25 18 C 29.785156 19.042969 29.964844 20.308594 30.8125 21.15625 C 31.359375 21.703125 32.089844 22 32.8125 22 C 33.535156 22 34.265625 21.734375 34.8125 21.1875 C 34.824219 21.175781 34.832031 21.167969 34.84375 21.15625 L 38 18 L 48 18 L 48 24 L 2 24 Z M 4.5625 26 L 16.09375 26 C 15.304688 26.507813 14.78125 27.375 14.78125 28.375 L 14.78125 39.46875 C 14.78125 41.027344 16.066406 42.3125 17.625 42.3125 C 19.183594 42.3125 20.46875 41.027344 20.46875 39.46875 L 20.46875 28.375 C 20.46875 27.375 19.945313 26.507813 19.15625 26 L 23.46875 26 C 22.679688 26.507813 22.15625 27.375 22.15625 28.375 L 22.15625 39.46875 C 22.15625 41.027344 23.441406 42.3125 25 42.3125 C 26.558594 42.3125 27.84375 41.027344 27.84375 39.46875 L 27.84375 28.375 C 27.84375 27.375 27.320313 26.507813 26.53125 26 L 30.84375 26 C 30.054688 26.507813 29.53125 27.375 29.53125 28.375 L 29.53125 39.46875 C 29.53125 41.027344 30.816406 42.3125 32.375 42.3125 C 33.933594 42.3125 35.21875 41.027344 35.21875 39.46875 L 35.21875 28.375 C 35.21875 27.375 34.695313 26.507813 33.90625 26 L 45.4375 26 L 40.25 44 C 40.320313 43.761719 40.15625 44 40 44 L 10 44 C 9.84375 44 9.679688 43.761719 9.75 44 Z M 17.625 27.53125 C 18.097656 27.53125 18.46875 27.902344 18.46875 28.375 L 18.46875 39.46875 C 18.46875 39.941406 18.097656 40.3125 17.625 40.3125 C 17.152344 40.3125 16.78125 39.941406 16.78125 39.46875 L 16.78125 28.375 C 16.78125 27.902344 17.152344 27.53125 17.625 27.53125 Z M 25 27.53125 C 25.472656 27.53125 25.84375 27.902344 25.84375 28.375 L 25.84375 39.46875 C 25.84375 39.941406 25.472656 40.3125 25 40.3125 C 24.527344 40.3125 24.15625 39.941406 24.15625 39.46875 L 24.15625 28.375 C 24.15625 27.902344 24.527344 27.53125 25 27.53125 Z M 32.375 27.53125 C 32.847656 27.53125 33.21875 27.902344 33.21875 28.375 L 33.21875 39.46875 C 33.21875 39.941406 32.847656 40.3125 32.375 40.3125 C 31.902344 40.3125 31.53125 39.941406 31.53125 39.46875 L 31.53125 28.375 C 31.53125 27.902344 31.902344 27.53125 32.375 27.53125 Z"/></svg>