<svg xmlns="http://www.w3.org/2000/svg"  viewBox="0 0 50 50" width="500px" height="500px"><path d="M 24.964844 2 A 1.0001 1.0001 0 0 0 24.382812 2.2128906 L 1.3828125 20.212891 A 1.0002305 1.0002305 0 1 0 2.6171875 21.787109 L 4 20.705078 L 4 47 A 1.0001 1.0001 0 0 0 5 48 L 45 48 A 1.0001 1.0001 0 0 0 46 47 L 46 20.705078 L 47.382812 21.787109 A 1.0002308 1.0002308 0 1 0 48.617188 20.212891 L 25.617188 2.2128906 A 1.0001 1.0001 0 0 0 24.964844 2 z M 25 4.2695312 L 44 19.138672 L 44 46 L 6 46 L 6 19.138672 L 25 4.2695312 z M 25 20 C 19.591 20 14.684078 22.167969 11.080078 25.667969 L 12.494141 27.080078 C 15.736141 23.942078 20.143 22 25 22 C 29.857 22 34.263859 23.942078 37.505859 27.080078 L 38.919922 25.667969 C 35.315922 22.167969 30.409 20 25 20 z M 25 25 C 20.969 25 17.313234 26.606172 14.615234 29.201172 L 16.029297 30.615234 C 18.364297 28.381234 21.521 27 25 27 C 28.479 27 31.635703 28.381234 33.970703 30.615234 L 35.384766 29.201172 C 32.686766 26.606172 29.031 25 25 25 z M 25 30 C 22.348 30 19.940437 31.044375 18.148438 32.734375 L 19.5625 34.148438 C 20.9925 32.820438 22.9 32 25 32 C 27.1 32 29.0085 32.819437 30.4375 34.148438 L 31.849609 32.736328 C 30.058609 31.045328 27.652 30 25 30 z M 25 35 A 2 2 0 0 0 23 37 A 2 2 0 0 0 25 39 A 2 2 0 0 0 27 37 A 2 2 0 0 0 25 35 z"/></svg>