<svg xmlns="http://www.w3.org/2000/svg"  viewBox="0 0 50 50" width="500px" height="500px"><path d="M 8 0 C 6.355469 0 5 1.355469 5 3 L 5 50 L 45 50 L 45 3 C 45 1.355469 43.644531 0 42 0 Z M 8 2 L 42 2 C 42.566406 2 43 2.433594 43 3 L 43 48 L 7 48 L 7 3 C 7 2.433594 7.433594 2 8 2 Z M 9 6 L 9 32 L 33 32 L 33 6 Z M 11 8 L 31 8 L 31 30 L 11 30 Z M 14 10 L 14 12 L 12 12 L 12 14 L 30 14 L 30 12 L 28 12 L 28 10 L 26 10 L 26 12 L 24 12 L 24 10 L 22 10 L 22 12 L 20 12 L 20 10 L 18 10 L 18 12 L 16 12 L 16 10 Z M 35 10 L 35 12 L 41 12 L 41 10 Z M 35 14 L 35 16 L 41 16 L 41 14 Z M 14 16 L 14 18 L 12 18 L 12 20 L 30 20 L 30 18 L 28 18 L 28 16 L 26 16 L 26 18 L 24 18 L 24 16 L 22 16 L 22 18 L 20 18 L 20 16 L 18 16 L 18 18 L 16 18 L 16 16 Z M 35 18 L 35 20 L 41 20 L 41 18 Z M 14 22 L 14 24 L 12 24 L 12 26 L 30 26 L 30 24 L 28 24 L 28 22 L 26 22 L 26 24 L 24 24 L 24 22 L 22 22 L 22 24 L 20 24 L 20 22 L 18 22 L 18 24 L 16 24 L 16 22 Z M 35 22 L 35 24 L 41 24 L 41 22 Z M 38 28 C 36.34375 28 35 29.34375 35 31 L 35 32 L 41 32 L 41 31 C 41 29.34375 39.65625 28 38 28 Z M 9 34 L 9 44 L 33 44 L 33 34 Z M 11 36 L 31 36 L 31 42 L 23.34375 42 L 24.4375 41.78125 C 24.699219 41.730469 24.929688 41.574219 25.074219 41.351563 C 25.222656 41.128906 25.273438 40.855469 25.21875 40.59375 L 24.59375 37.46875 C 24.484375 36.9375 23.972656 36.589844 23.4375 36.6875 L 17.5625 37.84375 C 17.300781 37.894531 17.070313 38.050781 16.925781 38.273438 C 16.777344 38.496094 16.726563 38.769531 16.78125 39.03125 L 17.375 42 L 11 42 Z M 22.84375 38.84375 L 23.0625 40 L 19.1875 40.78125 L 18.9375 39.625 Z"/></svg>