<svg xmlns="http://www.w3.org/2000/svg"  viewBox="0 0 50 50" width="500px" height="500px"><path d="M 21.03125 0.0625 C 20.738281 0.078125 20.445313 0.144531 20.15625 0.28125 C 19.582031 0.554688 19.050781 1.039063 18.5 1.78125 C 18.117188 2.296875 16.980469 3.945313 15.84375 5.65625 C 15.273438 6.511719 14.730469 7.371094 14.28125 8.09375 C 13.832031 8.816406 13.53125 9.300781 13.34375 9.78125 C 13.050781 10.535156 13.1875 11.265625 13.40625 11.84375 C 13.625 12.421875 13.917969 12.914063 14.125 13.3125 C 15.777344 16.484375 18.664063 20.222656 19 20.65625 L 19 28.65625 C 19 30.773438 18.96875 35.746094 18.96875 37.78125 C 18.96875 38.199219 19.054688 38.742188 19.15625 39.5 C 19.257813 40.257813 19.382813 41.1875 19.53125 42.125 C 19.832031 44 20.179688 45.9375 20.40625 46.875 C 20.6875 48.03125 21.109375 48.828125 21.6875 49.34375 C 22.265625 49.859375 22.980469 50 23.46875 50 C 24.253906 50 25.023438 49.460938 25.375 48.75 C 25.726563 48.039063 25.832031 47.199219 25.8125 46.15625 C 25.78125 44.53125 25.582031 42.53125 25.40625 40.78125 C 25.386719 40.570313 25.394531 40.550781 25.375 40.34375 C 25.75 40.871094 26.433594 41.132813 27.09375 41.125 C 27.769531 41.113281 28.496094 40.878906 29.34375 40.4375 C 30.179688 40 31.421875 39.085938 32.8125 38.03125 C 34.203125 36.976563 35.6875 35.8125 36.71875 35 C 37.117188 34.6875 37.597656 34.207031 37.84375 33.4375 C 38.089844 32.667969 37.933594 31.574219 37.1875 30.75 C 34.65625 27.953125 31.679688 26.292969 30.9375 25.875 C 30.949219 23.367188 31.023438 22.058594 31.03125 20.84375 C 31.21875 20.554688 33.585938 16.914063 35.09375 13.65625 C 35.460938 12.867188 35.734375 12.210938 35.875 11.53125 C 36.015625 10.851563 35.949219 10.117188 35.625 9.46875 C 34.910156 8.035156 32.105469 2.820313 31.4375 1.75 C 31.425781 1.75 31.417969 1.75 31.40625 1.75 C 31.085938 1.242188 30.683594 0.746094 30.125 0.40625 C 29.847656 0.238281 29.519531 0.109375 29.15625 0.0625 C 28.792969 0.015625 28.398438 0.0546875 28.03125 0.21875 C 26.960938 0.703125 26.675781 1.996094 27.34375 3.40625 C 27.539063 3.820313 28.316406 5.316406 29.125 6.96875 C 29.527344 7.792969 29.933594 8.609375 30.21875 9.28125 C 30.363281 9.617188 30.457031 9.910156 30.53125 10.125 C 30.574219 10.253906 30.582031 10.386719 30.59375 10.4375 C 30.585938 10.480469 30.582031 10.53125 30.5625 10.59375 C 30.503906 10.773438 30.429688 11.027344 30.3125 11.3125 C 30.164063 11.671875 29.933594 12.128906 29.71875 12.5625 C 29.886719 12.066406 30 11.550781 30 11 C 30 8.25 27.75 6 25 6 C 22.25 6 20 8.25 20 11 C 20 13.75 22.25 16 25 16 C 26.632813 16 28.085938 15.1875 29 13.96875 C 28.773438 14.398438 28.546875 14.855469 28.34375 15.1875 C 28.1875 15.449219 28.046875 15.664063 27.9375 15.8125 C 27.90625 15.855469 27.875 15.875 27.84375 15.90625 C 27.765625 15.90625 27.472656 15.992188 27.09375 16 C 26.539063 16.015625 25.804688 16 25 16 C 24.203125 16 23.398438 16 22.78125 15.96875 C 22.472656 15.953125 22.214844 15.933594 22.0625 15.90625 C 22.023438 15.898438 22.023438 15.886719 22 15.875 C 21.742188 15.5625 21.210938 14.71875 20.71875 13.8125 C 20.183594 12.832031 19.667969 11.835938 19.25 11.1875 C 19.089844 10.941406 19.066406 10.824219 19.0625 10.78125 C 19.058594 10.738281 19.039063 10.695313 19.125 10.5 C 19.167969 10.398438 19.464844 9.855469 19.8125 9.21875 C 20.160156 8.582031 20.601563 7.796875 21.03125 7.03125 C 21.460938 6.265625 21.886719 5.507813 22.21875 4.90625 C 22.550781 4.304688 22.726563 4.011719 22.875 3.65625 C 23.167969 2.945313 23.050781 2.351563 22.90625 1.78125 C 22.835938 1.496094 22.761719 1.222656 22.625 0.96875 C 22.488281 0.714844 22.363281 0.402344 21.84375 0.1875 C 21.609375 0.0898438 21.324219 0.046875 21.03125 0.0625 Z M 29.09375 2.125 C 29.28125 2.238281 29.53125 2.515625 29.71875 2.8125 C 30.132813 3.476563 33.210938 9.082031 33.84375 10.34375 C 33.972656 10.601563 33.984375 10.757813 33.90625 11.125 C 33.828125 11.492188 33.632813 12.054688 33.28125 12.8125 C 31.820313 15.96875 29.1875 20.03125 29.1875 20.03125 C 29.082031 20.199219 29.027344 20.394531 29.03125 20.59375 C 29.03125 21.929688 28.9375 23.09375 28.9375 26.40625 C 28.941406 26.773438 29.144531 27.109375 29.46875 27.28125 C 29.46875 27.28125 33.144531 29.28125 35.6875 32.09375 C 36.039063 32.484375 36.007813 32.597656 35.9375 32.8125 C 35.867188 33.027344 35.613281 33.324219 35.46875 33.4375 C 34.441406 34.25 32.964844 35.398438 31.59375 36.4375 C 30.222656 37.476563 28.882813 38.4375 28.40625 38.6875 C 27.761719 39.027344 27.3125 39.117188 27.09375 39.125 C 27.082031 39.054688 27.046875 39 27.0625 38.90625 C 27.101563 38.644531 27.234375 38.363281 27.28125 38.3125 C 28.003906 37.535156 30.816406 34.84375 31.46875 34.25 L 31.46875 34.21875 C 31.632813 34.070313 31.804688 33.914063 31.9375 33.6875 C 32.078125 33.453125 32.1875 33.09375 32.09375 32.71875 C 32 32.34375 31.78125 32.085938 31.59375 31.9375 C 31.40625 31.789063 31.222656 31.714844 31.03125 31.625 C 29.273438 30.789063 25.375 29.125 25.375 29.125 C 25.089844 29.007813 24.765625 29.027344 24.496094 29.179688 C 24.226563 29.332031 24.042969 29.601563 24 29.90625 C 24 29.90625 23.765625 31.328125 23.53125 32.9375 C 23.296875 34.546875 23.054688 36.253906 23.0625 37.21875 C 23.066406 37.910156 23.261719 39.234375 23.4375 40.96875 C 23.613281 42.703125 23.78125 44.71875 23.8125 46.21875 C 23.828125 47.089844 23.699219 47.65625 23.59375 47.875 C 23.488281 48.09375 23.601563 48 23.46875 48 C 23.3125 48 23.207031 48 23.03125 47.84375 C 22.855469 47.6875 22.5625 47.273438 22.34375 46.375 C 22.160156 45.613281 21.792969 43.664063 21.5 41.8125 C 21.351563 40.886719 21.222656 39.980469 21.125 39.25 C 21.027344 38.519531 20.96875 37.890625 20.96875 37.78125 C 20.96875 35.757813 21 30.785156 21 28.65625 L 21 20.3125 C 21 20.085938 20.921875 19.863281 20.78125 19.6875 C 20.78125 19.6875 17.488281 15.445313 15.90625 12.40625 C 15.660156 11.9375 15.410156 11.5 15.28125 11.15625 C 15.152344 10.8125 15.140625 10.617188 15.1875 10.5 C 15.203125 10.464844 15.535156 9.851563 15.96875 9.15625 C 16.402344 8.460938 16.96875 7.597656 17.53125 6.75 C 18.65625 5.058594 19.84375 3.34375 20.125 2.96875 C 20.507813 2.453125 20.777344 2.28125 20.9375 2.1875 C 20.945313 2.214844 20.960938 2.222656 20.96875 2.25 C 21.046875 2.558594 21.003906 2.976563 21.03125 2.90625 C 21.074219 2.804688 20.796875 3.34375 20.46875 3.9375 C 20.140625 4.53125 19.710938 5.292969 19.28125 6.0625 C 18.851563 6.832031 18.417969 7.601563 18.0625 8.25 C 17.707031 8.898438 17.457031 9.386719 17.3125 9.71875 C 17.148438 10.09375 17.015625 10.535156 17.0625 11 C 17.109375 11.464844 17.304688 11.886719 17.5625 12.28125 C 17.851563 12.726563 18.382813 13.765625 18.9375 14.78125 C 19.484375 15.789063 20.039063 16.71875 20.6875 17.375 L 20.6875 17.40625 C 21.066406 17.773438 21.382813 17.816406 21.6875 17.875 C 22 17.933594 22.328125 17.953125 22.6875 17.96875 C 23.402344 18.003906 24.222656 18 25 18 C 25.765625 18 26.511719 18.015625 27.15625 18 C 27.800781 17.984375 28.300781 18.0625 28.96875 17.59375 C 29.269531 17.382813 29.367188 17.222656 29.53125 17 C 29.695313 16.777344 29.882813 16.511719 30.0625 16.21875 C 30.417969 15.632813 30.785156 14.917969 31.15625 14.1875 C 31.527344 13.457031 31.894531 12.730469 32.15625 12.09375 C 32.289063 11.773438 32.386719 11.484375 32.46875 11.21875 C 32.550781 10.953125 32.625 10.753906 32.625 10.40625 C 32.625 10.015625 32.539063 9.796875 32.4375 9.5 C 32.335938 9.203125 32.21875 8.863281 32.0625 8.5 C 31.753906 7.769531 31.347656 6.9375 30.9375 6.09375 C 30.113281 4.410156 29.207031 2.667969 29.15625 2.5625 C 29.03125 2.296875 29.078125 2.222656 29.09375 2.125 Z M 25 8 C 26.667969 8 28 9.332031 28 11 C 28 12.667969 26.667969 14 25 14 C 23.332031 14 22 12.667969 22 11 C 22 9.332031 23.332031 8 25 8 Z M 25.8125 31.5 C 26.785156 31.914063 28.296875 32.550781 29.6875 33.1875 C 28.703125 34.101563 26.648438 36.070313 25.84375 36.9375 C 25.429688 37.382813 25.285156 37.90625 25.1875 38.40625 C 25.15625 38.058594 25.0625 37.269531 25.0625 37.1875 C 25.058594 36.65625 25.300781 34.804688 25.53125 33.21875 C 25.664063 32.308594 25.722656 32.058594 25.8125 31.5 Z"/></svg>